/* XPM */
static char *result[] = {
/* columns rows colors chars-per-pixel */
"50 50 239 2 ",
"   c #009500",
".  c #059A02",
"X  c #0A9E03",
"o  c #169E16",
"O  c #0DA203",
"+  c #13A603",
"@  c #15AB03",
"#  c #1BAC06",
"$  c #11A508",
"%  c #1BAD0C",
"&  c #16A90B",
"*  c #1CB205",
"=  c #1EB10D",
"-  c #1CA513",
";  c #22AD09",
":  c #22B606",
">  c #25BB07",
",  c #24B30B",
"<  c #2BBD09",
"1  c #27BA09",
"2  c #35BE0A",
"3  c #3BBB0E",
"4  c #24B611",
"5  c #2CBC14",
"6  c #2BB318",
"7  c #31BA14",
"8  c #28AD18",
"9  c #35973A",
"0  c #318D3F",
"q  c #38B428",
"w  c #3DAB38",
"e  c #29AB23",
"r  c #41B910",
"t  c #4BBF34",
"y  c #2CC207",
"u  c #2EC309",
"i  c #32C509",
"p  c #3CC40C",
"a  c #35CB09",
"s  c #3BCD0C",
"d  c #34CB07",
"f  c #3CD20A",
"g  c #32C216",
"h  c #35C419",
"j  c #3BC61B",
"k  c #3CCB1C",
"l  c #3AC912",
"z  c #2FC112",
"x  c #41C70E",
"c  c #45CC0D",
"v  c #49CE0F",
"b  c #44D60C",
"n  c #4BD30F",
"m  c #44DB0C",
"M  c #4ADD0D",
"N  c #43CB14",
"B  c #4BCE11",
"V  c #41CE1E",
"C  c #46C818",
"Z  c #4CD312",
"A  c #4EDA12",
"S  c #48D518",
"D  c #52D113",
"F  c #5CD515",
"G  c #54D11A",
"H  c #5DD41B",
"J  c #55DA1A",
"K  c #59DC18",
"L  c #53D115",
"P  c #62DA16",
"I  c #6DDB1A",
"U  c #65D919",
"Y  c #76DB1B",
"T  c #67CE1A",
"R  c #4DE20E",
"E  c #51E50E",
"W  c #54EA0F",
"Q  c #4EE215",
"!  c #52E512",
"~  c #55EB11",
"^  c #5AEE15",
"/  c #5DEE1A",
"(  c #59E419",
")  c #5EF01B",
"_  c #5DF017",
"`  c #6AE616",
"'  c #76E51B",
"]  c #62F31F",
"[  c #48C724",
"{  c #53CC28",
"}  c #4DD924",
"|  c #47D421",
" . c #5AD425",
".. c #56D926",
"X. c #59C93B",
"o. c #5BD434",
"O. c #64D62A",
"+. c #73DC2C",
"@. c #65D534",
"#. c #68DA37",
"$. c #74DB3B",
"%. c #77DC35",
"&. c #61CD3F",
"*. c #56E129",
"=. c #5EE92C",
"-. c #58E326",
";. c #64EA2B",
":. c #69EC2C",
">. c #65E628",
",. c #78E626",
"<. c #64F323",
"1. c #69F52A",
"2. c #6DF92D",
"3. c #68F527",
"4. c #65EE30",
"5. c #6DED33",
"6. c #6AE538",
"7. c #76EC37",
"8. c #6CF332",
"9. c #66F031",
"0. c #73F535",
"q. c #73FB35",
"w. c #75F43B",
"e. c #76FD38",
"r. c #79FF3A",
"t. c #7AF53A",
"y. c #70FA2F",
"u. c #318A42",
"i. c #3C9C40",
"p. c #45AB40",
"a. c #72DA43",
"s. c #7BDB4C",
"d. c #78DB46",
"f. c #65C558",
"g. c #79DA53",
"h. c #60C847",
"j. c #79E647",
"k. c #7BF443",
"l. c #7DFA43",
"z. c #7FF14A",
"x. c #7FE251",
"c. c #74CB6A",
"v. c #5DCB47",
"b. c #83DD1F",
"n. c #86E51F",
"m. c #82E425",
"M. c #8AE826",
"N. c #96EA28",
"B. c #8AE536",
"V. c #95E838",
"C. c #8BFA3E",
"Z. c #9BF637",
"A. c #9CF02F",
"S. c #A4F32F",
"D. c #ACF632",
"F. c #A6F738",
"G. c #B4F93A",
"H. c #A1EA35",
"J. c #C2FF39",
"K. c #84DE59",
"L. c #83DE46",
"P. c #88E54B",
"I. c #97E646",
"U. c #83F94B",
"Y. c #81F44B",
"T. c #8BED5D",
"R. c #87E456",
"E. c #98E757",
"W. c #8CF55A",
"Q. c #8EFA5B",
"!. c #88F653",
"~. c #94F95C",
"^. c #B7F844",
"/. c #A4EA5A",
"(. c #B0F256",
"). c #80CD79",
"_. c #8DDA75",
"`. c #8DE066",
"'. c #97E767",
"]. c #95FA65",
"[. c #99FB6C",
"{. c #9AF368",
"}. c #9BE877",
"|. c #9DF773",
" X c #B5EF6A",
".X c #A5E875",
"XX c #B4EF76",
"oX c #A5FB7C",
"OX c #A1F876",
"+X c #B0F36D",
"@X c #C2FE41",
"#X c #CBFF57",
"$X c #D3FF6C",
"%X c #C7FA76",
"&X c #D6FF77",
"*X c #C4FB69",
"=X c #9DDD8B",
"-X c #91D48A",
";X c #A3DF90",
":X c #A9E988",
">X c #BEEF89",
",X c #AAFC83",
"<X c #AAF785",
"1X c #B4F78A",
"2X c #AAE991",
"3X c #B6EC97",
"4X c #B5FC94",
"5X c #BBFB9D",
"6X c #B7F695",
"7X c #BEFCA2",
"8X c #B1DFAD",
"9X c #C9F399",
"0X c #DAFD90",
"qX c #E1FF9E",
"wX c #C2EFAB",
"eX c #C2FDA6",
"rX c #C7FCAD",
"tX c #C6F8AA",
"yX c #CBFDB4",
"uX c #CBF8B6",
"iX c #D1FDBD",
"pX c #D2F7BE",
"aX c #D7F9A8",
"sX c #E6FEB5",
"dX c #D5FDC3",
"fX c #DCFECB",
"gX c #DAF8C7",
"hX c #DFFED1",
"jX c #E6FCDA",
"kX c #E9FDDE",
"lX c #E4FCD5",
"zX c #E3F9C8",
"xX c #ECFEE3",
"cX c #EFFEE8",
"vX c #F3FEED",
"bX c #F6FFF2",
"nX c #F9FFF5",
"mX c #FFFFFF",
"MX c None",
/* pixels */
"MXMXMXMXMXMXMXMXMXMXMXMXMXMXMXMXMXMXMXMXMXMXMXmXmXmXmXmXMXMXMXMXMXMXMXMXMXMXMXMXMXMXMXMXMXMXMXMXMXMX",
"MXMXMXMXMXMXMXMXMXMXMXMXMXMXMXMXMXMXMXMXmXmXmXvXfXyXfXvXmXmXMXMXMXMXMXMXMXMXMXMXMXMXMXMXMXMXMXMXMXMX",
"MXMXMXMXMXMXMXMXMXMXMXMXMXMXMXMXmXmXmXmXbXjX5XW.l.e.l.].iXmXmXMXMXMXMXMXMXMXMXMXMXMXMXMXMXMXMXMXMXMX",
"MXMXMXMXMXMXMXMXMXMXMXMXMXMXmXmXvXiX4XoX].k.W.!.>.:.:.0.Q.eXvXmXmXMXMXMXMXMXMXMXMXMXMXMXMXMXMXMXMXMX",
"MXMXMXMXMXMXMXMXMXMXMXMXMXmXnXrXQ.t.:.` G Z R.E.#.#. .J R.[.4XfXnXmXmXmXMXMXMXMXMXMXMXMXMXMXMXMXMXMX",
"MXMXMXMXMXMXMXMXMXMXMXmXmXxXoXw.;.J D D $.'.N.m.3XXX.XF F U j.k.[.rXvXnXmXmXmXMXMXMXMXMXMXMXMXMXMXMX",
"MXMXMXMXMXMXMXMXMXMXmXmXdXQ.W.R.O.H L D '.:XT I +.+.V.S.F.S.A.M.,.k.1XoXfXdXcXmXmXMXMXMXMXMXMXMXMXMX",
"MXMXMXMXMXMXMXMXMXmXnXeXk.<XjX3X7Xg.c v  . .v v B v B U M.^.0X^.D.m...>.!.l.[.rXnXmXMXMXMXMXMXMXMXMX",
"MXMXMXMXMXMXMXMXmXbX4X5.s.wX`.+.E.d.K.Y I F Z v n n v v G L.E.G.^.qXE.F Z a.6Xt.,XvXmXMXMXMXMXMXMXMX",
"MXMXMXMXMXMXMXmXvX1X6X7XL.Y Y ' I E.aX,.P B B B A E c v s.pXO.` M.*X^.A.,.G @.R.0.,XbXmXMXMXMXMXMXMX",
"MXMXMXMXMXMXmXbXoXP.}.V.b.M.N.I.N.N. .* X + l B n : + < B 5.W W M K M.D.M.Y B #...Y.,XvXmXMXMXMXMXMX",
"MXMXMXMXMXmXmX1X:.%.9XP.Y N.H.(.n.` <     1 E b , . + s Z b R W i i Z m. X,.D c G uXoX,XnXmXMXMXMXMX",
"MXMXMXMXMXmXiXt.j..XE.V.b.T b.T i @       X & O       . * @ : m m @ y A %.^.B.F $.K.z.t.fXmXMXMXMXMX",
"MXMXMXMXmXcX[.{.zX9XN.b.; . X X       . X O . O : u : O     * f W f O s n K B.N.R. .J 0.4XmXMXMXMXMX",
"MXMXMXMXmX7X~.V.I.H.N.T   X     $ 5 | =.4.9...[ S W ~ M u * : f W R * i Z Z ' ] M.F B ;.Q.vXmXMXMXMX",
"MXMXMXmXvX~.Y I n.I.%XT . ; O C 8.r.r.r.e.6.p.9 9 w [ S [ A ~ S > < u : s Z M.' ` ' @.#.!.dXmXMXMXMX",
"MXMXMXmXiX7.F n.Y %./.L O * y ) ] <.q.0.X.X.#.t i.u.u.0 i.9 o.1X} $ s u O p U n.n.,.j.$.|.5XmXMXMXMX",
"MXMXMXmX1X:X'.T F T Y 3 u * f ~ W W 3.6.6.e.k.o.[ q 9 i.u.9 o.hX;Xy = R u @ v ~ N.9Xg.G <X,XbXmXMXMX",
"MXMXmXbX!.O. .B P T r d R > <.3.~ _ q.r.r.w.6.#.X.o.} *.o.o.3.4XuXz * u ~ * u R n.9X3X`.>.!.kXmXMXMX",
"MXMXmXlX|.a.v D v U l f f k e.1.~ 3.r.r.e.e.e.r.e.e.8.} } 0.r.r.|.{ O * E * . @ g.lX=Xd.2XQ.fXmXMXMX",
"MXMXmXiX6. .v v v Y v b s 4 q.3.<.e.r.e.r.r.r.r.r.r.r.8.z = =.r.l.4.O @ R *     q rX#.G }.k.iXmXMXMX",
"MXMXmX5XZ B g.`.G ` K R * O 9.e.e.r.r.r.8.} j 5 h *.q.r.8.$ = q.e.8.4 y R a .   < 7.H B K.t.iXmXMXMX",
"MXMXmX|.Z B 3XkX>.` E b O 4 8.r.r.e.e.} $       . = =.r.r.| . =.r.q.l u R E *   { C p K.}.8.uXmXMXMX",
"MXmXjXk.n v { K.K R > y 4 | q.r.e.r.| . O 4 V | k = 5 r.r.}   } 2.2.Q m W W * - }.3 p $.#.:.rXmXMXMX",
"MXmXrX5.g.@.D v n s + d z V e.e.e.9.$ k 9.*.4 h h & 5 e.e.g   l W W W W ~ R u h.R.d F I v :.4XmXMXMX",
"MXmX7XY.fXXXP v < O * m u k e.r.r.} & q.q.4 j | = & *.r.=.$ . S W W W W W R n  .( -.` /.O.:.].vXmXMX",
"MXmXrX8.$.>X+.c #   u W u l r.r.r.V 4 e.*.g r.r.8.8.e.8.4 = = 9./ W W W E A v n ;.7XY.XX$.}.!.iXmXMX",
"MXmXfX7.F N.` b # . f W f u 2.r.e.| 6 r.} h *.} q.w.*.4 = $ k r.y.^ W W n Z c R <.wX}.N.I |.U.eXmXMX",
"MXmXvXW.T. X{. .* + R W R z ) 2.r...= q.9.k =   & & h k . 4 8.e.r.<.~ A Z 2 : R ~ :.T.+X>XtXU.yXmXMX",
"MXMXmX4Xj.I.XX>.u * W W R z <.^ y.9.% =.r.8.g 5 4 g 4.5 5 8.r.r.r.2.m s c + i 5.z.;.1XbXmXrX[.vXmXMX",
"MXMXmXfX5.F ' :.-.d W W E u =.2.) q.k g r.r.=.9.r.r.8.*.<.q.e.r.r.J : N p 1 ! 1X1X<XvXjXuX[.fXmXMXMX",
"MXMXmXbXW.@.'.}.T.R W W W f k e.q.e.w.V k | 8.r.r.r.e.3.^ r.r.r.=.: b E M ( OX}.6.;X;X$.;.4XmXmXMXMX",
"MXMXMXmX,X4XzXzX|.j...~ ~ E d Q <.2.r.r.8.h | 8.=.| k f 3.r.q.-.* a W W E T.:XD #.e _.K.OXjXmXMXMXMX",
"MXMXMXmX4XXX0XsX'.x.o.R ~ ~ R f E ~ 2.r.r.*.O $ O O > -.e.3.E * y W W R R G C p # % L #.<XbXmXMXMXMX",
"MXMXMXmX4XZ.$X@XG.` 1 X.) W ~ R m E ^ 2.r.q.*.k S Q _ q./ m > d E R a R A x 6 e + K.L.J [.mXMXMXMXMX",
"MXMXMXmX4XU.&X@X$XXX7 8Xg.f W ~ W W W ~ ^ _ _ ~ ~ f Q =.m s R R u y R W Z + f.).2 E.`.j.oXmXMXMXMXMX",
"MXMXMXmX5Xt.G.J.#X*X( q 7 i s R ~ W W M f m f u * O h S R R i @ > R W m @   ).2X+.M.H Y.4XmXMXMXMXMX",
"MXMXMXmXyXr.M.D.J.J.' @.8 l p 1 m W W R a u > * @ = c...a y : i n ;.S $   O C d./.XX .e.iXmXMXMXMXMX",
"MXMXMXmXkX!.:.E.&X$XS.>.C : p p # > m ~ W W W m u : j l b n n p k _.e   X C G Y I.K.:.[.bXmXMXMXMXMX",
"MXMXMXMXmXeXt.{.>XqX@X` ..{ [ B x # O * a / ~ R R b Z Z N 1 $ X   o ).e X d.I.I.P >.U.fXmXMXMXMXMXMX",
"MXMXMXMXmXmXeXt.K A.J.D..X:X:X{ x , + . # h.k R E E n &.h.< 3 # X ; X.8 # B B.9X6.t.7XmXmXMXMXMXMXMX",
"MXMXMXMXMXmXmXdXY.6.aX$XG.+. .U '.&.+ X @ p [ { i m a 7 C p 2 t @.v v @.s.Y b.7.0.oXnXmXMXMXMXMXMXMX",
"MXMXMXMXMXMXmXmXjXOXeX*XJ.D.M.G.(.@.n -Xw = :X2XK M E W E < . c.=XL L g.3X$.P.0.].cXmXMXMXMXMXMXMXMX",
"MXMXMXMXMXMXMXMXmXvX,XC.F.G.*X%XD.P o..X[ . x G B Z n n B ,   . c.}.wXgXgXpXoX[.kXmXMXMXMXMXMXMXMXMX",
"MXMXMXMXMXMXMXMXMXmXnX7XU.e.t.U.7.` B N ; o 7 v B B B v p X   $ _.`.`.K.x.W.<XcXmXMXMXMXMXMXMXMXMXMX",
"MXMXMXMXMXMXMXMXMXMXmXmXhXoXU.r.e.0.;.G C =Xq i v c < # $ O , N @.O.n O.].dXmXmXMXMXMXMXMXMXMXMXMXMX",
"MXMXMXMXMXMXMXMXMXMXMXmXmXmXxXdXrX4XOXU.5.6.} &.Z N h j } ;.1.8.1.t.[.iXnXmXmXMXMXMXMXMXMXMXMXMXMXMX",
"MXMXMXMXMXMXMXMXMXMXMXMXMXMXmXmXmXmXnXjXeX{.l.!.t.U.Q.|.,X,XoXoX5XfXnXmXmXMXMXMXMXMXMXMXMXMXMXMXMXMX",
"MXMXMXMXMXMXMXMXMXMXMXMXMXMXMXMXMXMXmXmXmXbXlXdXdXlXvXnXmXmXmXmXmXmXmXMXMXMXMXMXMXMXMXMXMXMXMXMXMXMX",
"MXMXMXMXMXMXMXMXMXMXMXMXMXMXMXMXMXMXMXMXMXmXmXmXmXmXmXmXMXMXMXMXMXMXMXMXMXMXMXMXMXMXMXMXMXMXMXMXMXMX"
};

