/* XPM */
static char *result[] = {
/* columns rows colors chars-per-pixel */
"50 50 193 2 ",
"   c #000100",
".  c #010B02",
"X  c #04060A",
"o  c #0A0C0E",
"O  c #090609",
"+  c #130201",
"@  c #1A0C00",
"#  c #120B03",
"$  c #011203",
"%  c #021A05",
"&  c #091409",
"*  c #051C09",
"=  c #0B1B0B",
"-  c #141506",
";  c #0C0F11",
":  c #120D12",
">  c #131314",
",  c #12161A",
"<  c #181A1B",
"1  c #0F171B",
"2  c #280F03",
"3  c #271707",
"4  c #20161E",
"5  c #012A05",
"6  c #022B09",
"7  c #09240A",
"8  c #003605",
"9  c #03380B",
"0  c #0B2317",
"q  c #0F2810",
"w  c #172D17",
"e  c #0F3B16",
"r  c #143D15",
"t  c #1F370D",
"y  c #24300C",
"u  c #171A23",
"i  c #231C22",
"p  c #232123",
"a  c #2C282C",
"s  c #312F2F",
"d  c #353534",
"f  c #273834",
"g  c #54280D",
"h  c #532C14",
"j  c #4F250A",
"k  c #663E07",
"l  c #793F14",
"z  c #40343E",
"x  c #01460B",
"c  c #00480B",
"v  c #02510F",
"b  c #144215",
"n  c #104218",
"m  c #184619",
"M  c #194B18",
"N  c #045111",
"B  c #1C541D",
"V  c #1E5C1F",
"C  c #0F4411",
"Z  c #304D10",
"A  c #335013",
"S  c #047217",
"D  c #3D423E",
"F  c #1E6020",
"G  c #297B2B",
"H  c #7B4213",
"J  c #7F620B",
"K  c #2C3A40",
"L  c #453943",
"P  c #374449",
"I  c #3A4D54",
"U  c #3C4F59",
"Y  c #444545",
"T  c #5B5559",
"R  c #475C66",
"E  c #4C626D",
"W  c #516A75",
"Q  c #546E7A",
"!  c #57717E",
"~  c #58727F",
"^  c #4F6773",
"/  c #666766",
"(  c #657367",
")  c #7A7679",
"_  c #A05E02",
"`  c #856B0B",
"'  c #B26C03",
"]  c #8C5115",
"[  c #D4701C",
"{  c #C8731E",
"}  c #C46A20",
"|  c #E07A22",
" . c #807D7F",
".. c #038419",
"X. c #038A19",
"o. c #02951B",
"O. c #029C1D",
"+. c #009514",
"@. c #109E1E",
"#. c #02A41E",
"$. c #01A91F",
"%. c #2D892F",
"&. c #2C852F",
"*. c #31822C",
"=. c #2E8B30",
"-. c #2E8730",
";. c #2F9031",
":. c #329C35",
">. c #329535",
",. c #05AC21",
"<. c #12AB20",
"1. c #0CB233",
"2. c #33A136",
"3. c #35A638",
"4. c #36A93A",
"5. c #38AE3B",
"6. c #39B13D",
"7. c #6CBE2A",
"8. c #7CBF2B",
"9. c #62A626",
"0. c #249753",
"q. c #3DB540",
"w. c #40A64F",
"e. c #44A752",
"r. c #7F867F",
"t. c #78A87B",
"y. c #2ED273",
"u. c #30D377",
"i. c #B58A0A",
"p. c #E2861F",
"a. c #ED8B0C",
"s. c #D3A40A",
"d. c #EBBE0E",
"f. c #EDBA08",
"g. c #F7B908",
"h. c #EBB710",
"j. c #E9BB14",
"k. c #ECA40A",
"l. c #DA853E",
"z. c #EE8722",
"x. c #F68724",
"c. c #F58B23",
"v. c #F48E2D",
"b. c #F69220",
"n. c #F0AD24",
"m. c #EEC30E",
"M. c #F0C50E",
"N. c #F3C406",
"B. c #FFD30F",
"V. c #EFC416",
"C. c #F7C913",
"Z. c #EDC32B",
"A. c #F2CB2C",
"S. c #EEC933",
"D. c #F89B43",
"F. c #F8DE6F",
"G. c #F9E07C",
"H. c #597582",
"J. c #5C7986",
"K. c #5F7B89",
"L. c #607E8C",
"P. c #827F81",
"I. c #63818F",
"U. c #648392",
"Y. c #6B8A9A",
"T. c #7DAF80",
"R. c #878887",
"E. c #949594",
"W. c #8F9791",
"Q. c #A29FA0",
"!. c #A3A2A3",
"~. c #ABACAB",
"^. c #AEB0AE",
"/. c #B4B5B4",
"(. c #BBBCBB",
"). c #AFB0B0",
"_. c #BFC0BF",
"`. c #BFC1C0",
"'. c #C3C4C4",
"]. c #CBCCCB",
"[. c #C7C9C7",
"{. c #D5D4D4",
"}. c #DCDCDC",
"|. c #D9D8D7",
" X c #CFD0CF",
".X c #E5E5E5",
"XX c #EBECEB",
"oX c #EEEFE7",
"OX c #FBF7E3",
"+X c #F1EFF1",
"@X c #F5F5F5",
"#X c #FCFCFC",
"$X c #F8FAFA",
/* pixels */
"$X@X@X@X@X$X@X@X+X@X$X+X#X+X@X@X@X$X+X#X#X#X#X#X#X#X#X#X#X#X#X#X@X@X@X@X$X+X$X+X@X$X+X#X@X@X@X@X#X+X",
"@X@X@X@X$X@X@X@X$X$X@X@X+X#X@X@X@X@X+X(.'.(._.'.(.[.(.`.'.(.'.XX$X@X@X@X@X$X@X$X@X@X$X+X@X@X@X@X@X@X",
"@X@X@X@X@X$X@X@X$X#X$X@X@X+X@X#X#X#X.X                        .X#X#X#X@X+X@X@X@X@X$X@X@X@X@X@X@X@X@X",
"@X@X@X$X@X@X@X@X@X$X$X@X#X#X.XY Y d D S S 0.0.0.0.0.0.0.0.S S d L z Y .X#X$X@X@X@X@X@X@X@X#X@X@X@X@X",
"+X$X@X@X$X@X@X@X@X@X@X$XXX/.E.    % 5 1.1.y.y.y.u.y.y.y.y.1.1.8 %     E.(.XX$X@X@X@X@X@X@X@X@X@X@X$X",
"#X@X@X@X@X$X@X@X@X@X+X$X].    O * $.1.y.u.y.y.y.y.y.y.y.y.y.y.1.$.=       '.#X+X@X#X+X#X@X#X@X@X@X@X",
"+X#X@X@X$X+X$X+X@X$X#X#X{.        $ * 0 0 0 0 0 0 0 0 0 0 0 0 % *         }.#X#X@X@X@X@X@X@X@X@X@X#X",
"#X+X@X@X@X$X+X$X$X.X~.~.W.6 9 t t 6 6 5 5 5 5 5 5 5 5 5 5 5 5 6 6 t y 9 8 W./.!..X#X@X@X@X@X@X@X@X@X",
"@X@X@X@X#X@X@X@X#X[.    . $.<.8.7.,.,.,.,.$.,.,.,.,.,.,.,.,.,.,.,.7.8.<.,..     '.#X@X@X@X@X@X@X@X@X",
"@X@X@X@X@X@X@X#X X4 * X.S % % $ % . . . . $ $ $ $ . $ $ $ . . . . * * * $ S X.* i  X#X@X@X$X@X@X@X@X",
"@X@X@X@X@X@X@X#X(.  7 $...  + g h T T T T g g g g g g j g T T T T h g +   ..$.%   '.#X@X@X@X@X@X@X@X",
"@X#X@X@X@X@X@X@XXX) % #...  3 p.D.#X#X#X#Xv.x.x.x.x.c.x.v.#X#X#X#Xv.x.3   ..#.7   '.#X+X$X@X@X$X@X@X",
"@X@X@X@X@X@X@X@X$X#X/.. y } { f.Z.#XOXS.Z.h.h.h.h.h.h.h.h.Z.S.OX#XZ.h.{ } y $ /.}.XX@X$X+X$X@X@X@X@X",
"@X@X@X@X@X@X@X@X@X#X{.  2 | z.N.A.#XOXM.N.M.M.M.M.M.M.M.M.N.M.OX#XA.N.p.| 2   {.#X@X@X@X$X@X@X@X@X#X",
"#X@X@X@X@X#X+X#X@X#X}.  3 | z.N.A.#XOXV.M.d.d.d.d.d.d.m.d.M.V.OX#XA.f.z.| 3   |.#X@X@X$X@X@X@X@X@X@X",
"@X@X@X@X@X@X@X@X$X#XQ.  2 c.b.M.V.V.V.M.d.B.B.b.b.b.c.B.B.M.M.V.V.M.M.b.c.2   !.#X$X@X@X$X@X@X@X@X@X",
"@X@X@X$X@X@X@X#X.X/   v M l ] k.n.G.F.M.j.` J H H l H ` ` j.V.F.G.n.k.] l M v   / .X$X@X@X@X@X$X@X@X",
"$X@X@X@X@X@X@X#X(.  7 $.X.  : [ l.$X+Xj.s.                s.j.oX$Xl.[ :   X.$.7   _.#X@X@X@X@X@X$X@X",
"@X@X@X@X$X@X@X#X'.  . $.#.#...+ + o O # - +.+.O.O.O.#.+.X.= # o o + + ..#.#.$..   '.#X@X@X@X@X@X@X@X",
"$X@X@X@X@X@X+X$X}.) ( x x v N N v A Z   . e.w.v N c N e.e..   Z A v N N v x x ( P.}.$X@X@X$X@X@X$X@X",
"@X@X@X@X@X@X$X@X$X#X@Xi 4   $ O.@.7.9.  & W.t.X     O t.t.;   9.7.@.O..   i i +X#X@X@X@X$X@X$X@X@X$X",
"@X@X@X@X@X$X@X@X@X.X~.~.R.      * $.o.  $ #.#.o.o.o.O.#.O.$   o.$.*       R.~.~..X$X@X@X@X@X@X@X@X@X",
"@X$X@X@X@X@X@X+X#X[.      & M   . x 9   $ o.#.O.#.O.O.O.o.$   x x     M $       '.#X@X@X@X@X@X@X@X@X",
"@X@X@X$X@X@X#X{.a p       . q           $ +.O.O.O.O.O.O.o..           q X       p a {.#X@X@X@X@X@X@X",
"$X+X@X@X$X.X!.r.6 7                     . #.,.,.#.$.,.,.O.$                     7 5 U.!.}.#X@X@X$X@X",
"+X$X@X@X#X/.  % q.-.            .         5 8 8 x 9 8 6 8                       =.q.-   _.#X@X@X+X$X",
"#X+X#X'.p 4   = 3.G   2 a.k.s.i.  X Q H.W u , ,     , , u ^ H.Q X   i.k.k.a.2   G 3.=   p p _.#X@X+X",
"+X@X#X/.  . r B 3.=.e Z _ ' B.f.k k U U I I I I f f I I I U U U k k k.g.' _ Z e =.3.B r .   /.#X+X$X",
"$XXX#X/.  w 6.3.:.:.5.=.  - g.g.g.a.            L.L.X           a.g.g.g.-   %.5.:.:.2.5.w   /.#X@X@X",
"#X(.- f %.=.2.G   .   = 3.-.@ @ @ +   o W Q Q W X O ^ Q Q W o   + @ @ @ *.:.=   . O G 2.%.;.f & (.#X",
"#X/.  7 3.:.2.%.r b r m V B b r n e   o L.U.L.K.f K J.I.U.L.o   e b b b B V M r b b %.2.:.3.q   ).#X",
"#X/.  w 2.:.:.2.4.4.6.=.  & 3.3.5.>.  o H.J.K.K.Y.U.L.J.J.H.o   >.5.2.2.& O =.5.4.3.2.:.:.2.w   /.#X",
"#X/.  7 6.5.:.:.:.:.:.:.2.&.  % :.%.      o H.L.J.J.L.H.;       %.:.&   &.2.:.:.:.:.>.:.4.6.7   ^.#X",
"#X{.) ( C F 3.2.2.:.2.%.B B m B 2.%.  X K P K.I.L.L.I.K.P f X   =.2.B m B B =.2.:.:.2.3.F C ( ) {.$X",
"@X@X$X'.  p :.;.;.;.3.&.  $ 4.4.2.=.  ; J.K.H.~ ~ ~ ~ ~ L.J.o   %.2.4.4.&   G 2.;.;.>.:.w   '.#X@X$X",
"@X@X@XXX@X~.      q 6.%.  = >.>.2.=.      X X X O X X X X X     %.2.:.>.=   =.6.q       ).@XXX@X@X@X",
"@X@X@X@X#X}.R./     M r   = 2.2.4.=.                            =.3.2.2.=   r M .   / R.}.#X@X@X@X@X",
"@X@X@X@X@X@X#X{.> >       & %.%.;.G                             G ;.=.=.&       : > {.#X$X@X@X@X@X@X",
"$X@X@X@X@X@X+X@X#X].          .                                     .            X#X+X@X@X@X@X@X@X@X",
"@X@X@X@X$X@X#X{./ T                                                             T / |.$X@X@X$X@X@X@X",
"@X@X@X@X@X@X#X(.                              O p p X X                             (.#X@X$X@X@X$X@X",
"@X$X@X@X@X@X#X(.                                .XXX                                (.#X@X@X@X@X@X@X",
"@X@X$X@X@X$X#XXX~.R.                      o E.~.+X@X!.E.>                       R.~.XX#X@X@X@X@X@X@X",
"$X@X@X@X@XXX[.[..X).  X , , , , , , , >   < $X#X@X@X#X$X>   , > , , , , , , X   ~..X[.'.XX$X@X@X@X@X",
"@X@X@X@X#X(.          ; I.K.K.K.L.L.Y.L.  < .X@X@X@X@X.X<   L.Y.K.I.K.K.L.L.o           (.#X@X@X@X$X",
"@X@X@X@X#X(.  ; R R R E I.U.I.U.U.H.u 1   o XX$X@X+X#XoXo   , u H.U.I.U.U.U.E R R R o   (.#X@X@X@X@X",
"@X@X@X@X#X[.s P Q W W W E E E E E R s d d Y XX#X@X@X@XXXY d s d R E E E E E W W W Q P s ].#X@X@X@X@X",
"@X@X@X@X@X@X#X'.                  : $X#X$X#X@X@X@X@X$X@X#X#X#X$X>                   '.#X@X@X@X@X$X@X",
"@X@X@X@X$X@X$X.X/./././.(./.(././.(.@X@X@X@X@X@X@X@X@X@X@X@X@X@X(./.(./././.(./.(./..X@X@X@X@X@X@X@X",
"@X@X@X@X@X$X+X$X#X#X#X#X#X#X#X#X#X#X@X$X@X@X@X@X@X@X$X@X@X@X@X@X#X#X#X#X#X#X#X#X#X#X$X@X@X$X@X@X@X@X"
};
