/* XPM */
static char *result[] = {
/* columns rows colors chars-per-pixel */
"50 50 250 2 ",
"   c #1A6C18",
".  c #2D6E19",
"X  c #1A742D",
"o  c #2B7B2B",
"O  c #2A7230",
"+  c #6A7E1E",
"@  c #5F7D2A",
"#  c #677B26",
"$  c #177552",
"%  c #20744E",
"&  c #188C1E",
"*  c #309615",
"=  c #1CA11D",
"-  c #24AA17",
";  c #3CAD18",
":  c #3AB817",
">  c #148426",
",  c #08893A",
"<  c #0D8A3C",
"1  c #118F31",
"2  c #168A39",
"3  c #1B8D3E",
"4  c #1B9C33",
"5  c #15943A",
"6  c #189539",
"7  c #1D9B3C",
"8  c #288B26",
"9  c #388E2B",
"0  c #259827",
"q  c #258C38",
"w  c #259D3B",
"e  c #339835",
"r  c #1BA82A",
"t  c #1BB72B",
"y  c #1DA334",
"u  c #19A636",
"i  c #1CB735",
"p  c #27A929",
"a  c #39A929",
"s  c #3BAC2C",
"d  c #2BB926",
"f  c #2BB42C",
"g  c #23BC2D",
"h  c #2DBC2C",
"j  c #36B326",
"k  c #34BD24",
"l  c #3ABD24",
"z  c #34B52C",
"x  c #3BB42D",
"c  c #34BB2C",
"v  c #3ABB2C",
"b  c #24A433",
"n  c #2CA434",
"m  c #25AB37",
"M  c #2BAC34",
"N  c #24A33A",
"B  c #2CA33B",
"V  c #2BAC3B",
"C  c #38A437",
"Z  c #35AB35",
"A  c #3CAD35",
"S  c #3EA63C",
"D  c #34AD3B",
"F  c #3BAD3B",
"G  c #25B135",
"H  c #2CB533",
"J  c #24BC34",
"K  c #2CBC33",
"L  c #2DB43B",
"P  c #23BC3A",
"I  c #2CBB3B",
"U  c #34B534",
"Y  c #3BB434",
"T  c #33BB33",
"R  c #3BBB34",
"E  c #34B43B",
"W  c #3BB33B",
"Q  c #33BA3A",
"!  c #3BBC3A",
"~  c #5C8C1B",
"^  c #4D951A",
"/  c #54941B",
"(  c #48AA0F",
")  c #48A81A",
"_  c #4D8E28",
"`  c #578927",
"'  c #4C9A22",
"]  c #499A27",
"[  c #579525",
"{  c #538B35",
"}  c #469A34",
"|  c #539D33",
" . c #628C33",
".. c #48A626",
"X. c #42A42A",
"o. c #44AB2D",
"O. c #51A128",
"+. c #46BA2A",
"@. c #52BB28",
"#. c #47A735",
"$. c #43AC35",
"%. c #46A43C",
"&. c #44AB3C",
"*. c #54A731",
"=. c #43B333",
"-. c #43BC32",
";. c #4AB835",
":. c #42B33C",
">. c #54BA36",
",. c #59BB35",
"<. c #63BC27",
"1. c #68B937",
"2. c #79B737",
"3. c #1CC91A",
"4. c #0DDD18",
"5. c #17D816",
"6. c #1CDC1B",
"7. c #29D20E",
"8. c #2ACA19",
"9. c #34C51C",
"0. c #27D717",
"q. c #25D41C",
"w. c #22DC1C",
"e. c #36D81C",
"r. c #0CE70F",
"t. c #1AE50E",
"y. c #15EC0C",
"u. c #1AEB0E",
"i. c #05F506",
"p. c #02FF02",
"a. c #0BFE03",
"s. c #0DF40C",
"d. c #03FE0A",
"f. c #0BFE0A",
"g. c #12FC04",
"h. c #12F30B",
"j. c #17F20B",
"k. c #13FC0C",
"l. c #14E713",
"z. c #1CE414",
"x. c #13EC13",
"c. c #1CEC14",
"v. c #15E31B",
"b. c #1BE41B",
"n. c #14EB1B",
"m. c #1BEA1B",
"M. c #0BF414",
"N. c #04FE12",
"B. c #0BFD12",
"V. c #0BF41B",
"C. c #05FB19",
"Z. c #13F214",
"A. c #11FA13",
"S. c #16F619",
"D. c #27EF0D",
"F. c #23E314",
"G. c #29E817",
"H. c #22E31C",
"J. c #37E818",
"K. c #0BC820",
"L. c #1CCA29",
"P. c #1DD522",
"I. c #1CDC24",
"U. c #17D828",
"Y. c #1DCB35",
"T. c #26C323",
"R. c #2DC325",
"E. c #25CD24",
"W. c #2BCC22",
"Q. c #25C32C",
"!. c #2CC32C",
"~. c #24CC2B",
"^. c #2BCA2B",
"/. c #33C324",
"(. c #3CC324",
"). c #35CA26",
"_. c #33C42C",
"`. c #3BC32B",
"'. c #23D223",
"]. c #2AD223",
"[. c #23DB22",
"{. c #29D827",
"}. c #25D22A",
"|. c #37D625",
" X c #25C333",
".X c #2CC333",
"XX c #25CC33",
"oX c #2DCA32",
"OX c #25C33B",
"+X c #2CC439",
"@X c #33C232",
"#X c #3BC233",
"$X c #38CB37",
"%X c #33C23A",
"&X c #29D334",
"*X c #13E523",
"=X c #1DE223",
"-X c #16F027",
";X c #2BE821",
":X c #39E328",
">X c #53CD19",
",X c #49DC19",
"<X c #72E217",
"1X c #49C727",
"2X c #43C22E",
"3X c #4AC32B",
"4X c #54C42D",
"5X c #58C828",
"6X c #4BD524",
"7X c #57D628",
"8X c #42C234",
"9X c #47C838",
"0X c #5CC235",
"qX c #56CA34",
"wX c #67C928",
"eX c #73C82D",
"rX c #69D428",
"tX c #75D329",
"yX c #63C636",
"uX c #79C338",
"iX c #67D434",
"pX c #77D337",
"aX c #0E8A44",
"sX c #0B8848",
"dX c #0E8C4A",
"fX c #188946",
"gX c #189743",
"hX c #268846",
"jX c #289D45",
"kX c #2D914A",
"lX c #1BA944",
"zX c #2BA946",
"xX c #34AC42",
"cX c #3CAD44",
"vX c #39A748",
"bX c #2CB643",
"nX c #34B341",
"mX c #36B746",
"MX c #3AB343",
"NX c #489D46",
"BX c #569B41",
"VX c #43A544",
"CX c #48A547",
"ZX c #42A944",
"AX c #42A44A",
"SX c #48B145",
"DX c #28C142",
"FX c #91BB23",
"GX c #85BC35",
"HX c #82C62E",
/* pixels */
"6.i.p.3.f h g r G 1X+.f u u M a b u r r r u u l 1Xd f g h g p 0 t h a a f h g ^.J.R.H d g 6.r.p.i.5.",
"a.g.f.W.E @XV , B pX1Xd r , aXaX2 hX5 < % fXaX1.tXT H v v Y Q ! K R.k U K c D I.p.8.CXD k f.a.N.q.a ",
"p.6.3.U ZX..X.zXK +.T U +.3Xj H H z V Y.s.r.*X`.;.c J U E.m.b.c.@XbX1X4XR c T !  Xl.v.=Xc.d.y.~.h R ",
"p.}.CX@XW.' ] @X!.d I E 5XrX(.c T !.W &Xa.g.A.U.V l k ZX'.p.f.a.8.vX7XwXnXH c h AXx.p.k.a.f.6.VXE T ",
"p.:XuXD.f.L S k K I T T U Z D E Q T .Xa ^ <.tXD.d.d.Z.NX].p.w.Q ; / x Y aXu #X.X%.v.d.a.V..Xk [ s oX",
"N.e.<.0.M.I./.!.Q o.: W OXU.E.^.R U !.j ] *.0Xw.s.x.m.Q.].b.XXcX#.O.q.L.7 N Z H T |.D.a.V.MX%.) j G ",
"p.5.vXcX+XB.s.mX#.~ %.xXt.a.p.a.!.bXf P mXh t E ZXZX@Xp.z.$.U W cXE B.f.$Xn   * .XyXiXk.N.g W $Xm , ",
"U.e.4Xn a h.N.0.8.%.`.b.Z.B.U.J o.-.4X-.J `.5Xk K U T p.t.vX^.w.w.5.a.a.!.D w f T -.@.].w.T U M 7 2 ",
"zXqXtX* X j.d.d.s.vX].p.f.C.gX$ z `.pX0Xt 4XpX-.K A _.d.b.NXH.p.p.N.a.M.Q Y R @XK K H U U @XL 3 fXfX",
"_.Z n q fXQ ].f.k.l.i.d.q.c Q J K Q +.R J T _.Y K M.u.-.DXD w.a.P.!./.^.R c !.K H W &.N w p gXdXN C ",
"v 4 aXgX4 vXT s.V.p.g.S.^.VXH c c T J f R H J A T f.S.j J :.w.p.%X&.Q E H Q ! L R.!.W.4 aXhX5 5 V (.",
"1 5 dXL 8X@X!.%.@Xp.w.D R.!.& o #X!.T T T T U J L 2.7XA.g.B.C.p.6XwX2XL 1 7 W H.a.A.B.hX2 OXR a '.B.",
"4 w N p h m Z !.{.p.I.CXh Q p 0 xXV R T K U x v 8X5X,Xk.a.p.n.b.6X0XZ m 4 V W P.4.h.a.i i A ;.&Xb.d.",
":.W Q gXfX% gXp.p.f.I.F T c 9X$X2 hXU W Q Q.k 2.iXN.p.d.f.p.].S L P gX5 %XT #XjX$ 4.a.d.V.# / d.f.N.",
"c.z.H.f e L.U.p.h.6.8.E U R.e * K.5.z.q.E U L |.J.9./.}.6.d.'.F I c q 3 c T _.s zXE.v.Z.g.7.8.a.x.U.",
"f.d.f.).U S.f.p.z.C v ! Q T & X f.d.g.b.W AXT p.p.~ { Z 8.p.5.A @Xc 8 8 v T L R /.%.xXV.p.d.N.g.b.$.",
"#X-Xp.h.n.p.a.}.:. .n 5 @.wXZ bX X{.d.s.m.c.F.d.B.c s bX! L.9XwX8Xd 3 q v @XT I h nXT q./.) 9.p.z.A ",
"#.U.i.g.B.f.[.MXs ' w aX@.7X#Xv xXc M.d.a.f.d.u.G.oXv Q Y H ,.iX@Xz gXy T K U k x K T W xX@ ) p.[.F ",
"k W z s.f.oXW T f 3 gX2 M ! h L E R.cXw.d.B.p.h Z @X_.! c h U U J g L I K V < w R c K .XL X = p.[.=.",
"K U =.6.m..XU %XM aXjXy G K ).#Xc h CX).n.Z.a._.Z V M V H T OXU @.).c R 9XU 4 i .Xc l c xX9 p d.0.$.",
"Q P J Y x L T @XM 2 b T h c eXGXcXE T g A b.p.&X! q 5 1 r @XY W yXGX&.l iX5Xd E &.f i Y T S ).p.|._ ",
"U +.4XR I Y z !.U B c >XR MX|.G.b.6.c K xXe.,Xa 0 3 gXfXN Y !.=Xm.G.@XK 2X@.,.|.n.1X1.I L.v.m.d.0.*.",
"h 9XiX-.J c c .XR T 9XtX;.H p.p.d.y.=.E h 5XuX9 X 5 7 fXN nX;Xp.p.p.^.MXJ R uX:Xp.,XuXR I g.d.A.F.=.",
".X`.k =.cXW Z ' ..c R ZX{.u.d.p.8.I R x ] o.R A M t I V ~.;Xp.p.{.!.8 8 Q ! (.R.K c.f.=.&.p.l...; _.",
"Q U g !.^.~.!.' ..c K P Z.p.B.b.Y MXT x ' z XX^._.v -.W 6.p.f.Z.%XVX8 0 E K J L BXv.d.W.c p.w. .X.XX",
"> jX%XZ.a.p.S.o.VXxX*Xa.p.f.!.MXh h U bXo.m.p.p.m.] { } '.p.}.j d Y .XI c z U W c U Y N.d.d.b.U h T ",
"u S s 6.b.a.f.P.^.'.w.G.e.{.T.F T h h T Y }.H.d.f.(.: 5.[.6.^.U v T Q.h W K 6.@XT H MX[.z.f.;XE K c ",
"$X) ^ BXT k.f.p.p.p.'.S Y z h W U K g k W H Z -Xf.p.d.p.I.%.MXDXH U W R.Y {.p.[.E _.R VXc p.k.A z #X",
"E H Z U K oXb.d.p.d.&XcX8.T W Q h c qX2XL R l E.w.B.d.p.6.Q #.] w.x.Q W } /.p.*XL s ..v ~.t i ! Q T ",
"Y x _.T W AXK f.f.a.6.z U E T h H -.tX4XJ c T cXk A.p.f.b.I | ~ F.p.%X&.` ) p.I.xXX.' v bX% kXI T K ",
"V.f O 5.f..Xz T {.p.K.2 m E 5X5XT Q `.l !.b 5 nXW 8 r a.f.i.].D K /.B.d.z.H.a.H.#.U i x T K h R.$./ ",
"d.3.o 4.B.`.=.F W.A.i hXM 2X>X<.E E D k .Xb 2 H T o 0 j.j.f.0.z W W l.i.a.p.M.P.c W c c z z K +Xa ` ",
"s.S.A.}.H wXyXY c Q.Q cX3XrX' ] L A / ..T ! R c h z E K U mXT x E P O 8 f.s.Y Y  X| ` +XW + ` H E V ",
"p.N.f.).E 3X;._.$.W !.T qXwX%.a v.E.X.s T T T K T 1X`.F j J g Q 8X2X9 e C.z.ZXMXh o.X.K h 9.8.q.].I.",
"f.p.p.W.D H z Q.I %XT.c 0XeX#.K a.S.T T I !.c H Y rXyX` ' E W h 5XrX:..Xd.Z.nXnXY T Q &.E.C.p.f.a.g.",
"w.8.k ;.MXQ x @XG 8 C I {.D.=Xn.p.u...o.MXY U T c +.).7.7.S.XXE 8X).=XF.$X%Xz '.b.*Xl.o.s ~.t.p.a.p.",
"Z [ ` s .X! U %Xn . } %Xu.p.N.g.d.w.` X.^.K K _.T n K.d.p.p.5.W MXc p.f.cXf A [.p.f.g.( { #.!.S.j.d.",
"K E &.x.p.g.a.A.I.w q.Z.p.a.`.T ~.j . d d.B.c.J VXyXqXf.y.h T _.] | k.d.f.=XNX^.p.:XyXR z qXqX Xb.p.",
"g J T b.g.Z.h.p.x.T t.p.s.m..XxX@Xj o t y.p.p.E.T wX,Xp.w.S L H a X.w.i.p.;XK *Xp.6X2.+X.X5X,.Z ^.n.",
"@Xx cXU k xX@Xa.p.f.k.d.XXU h R ! oX! d zX;Xp.p.B.%.MXp.u.Z y 5 D .X=.@Xd.p.f.A.d.6XeX-.K .X!.K J Y ",
"nX^.E.!.MXW #X[.x.f.a.p.~.A v E V G p j ;.$Xw.s.f.8.E.v.].3XzXaXd #XjXa J.D.f.k.d.e.>.! h j j U K T ",
"C l.p.6.CXR.c vXXXN.p.a.oX&.@XL 6 6 sXvX<X-.vXM.p.d.a.AXSX<XVX, f c X 8 GX7Xd.g.d.8.C OXx ~ ] T R K ",
"w.{.6X(.W r u W .X_.u.d.].F .XI 6 fX< #.tX2Xg Y.W.f.Z.R R 3XY m z T M H 4X`.~.z.p.E.A E R z z !.s | ",
"d.J.GX;.J fXdXk Q xX0.p.L.A v U 4 gX, z tX).j S Y d.x.T H K K #X!.I R @XJ H } }.p.~.$.T T T Q .Xs ^ ",
"p.J.HX1XOX5 6 T +XJ 5XrX#XQ T z U K P T 2XK E 1.wXp.M.fXu `.=.Y lX2 j v K bXVXq.a.~.E oXv ] X.F q.g.",
"M.|.,.x m y p F x j ;.yX#XK T K _.c +.Z lXK Q 6X>Xk.U.hXr @XR ^.w q J +XZ +./.b.p.l #.U s ] a D I.p.",
"bXjXaXaXgXh Y _ ` / C T g H D cXnXo.[ 9 , e o.d.d.c cXY h zX*Xd.; # R Y _ : k.d.p.: ` O X ! R D I.d.",
"/.V w b B E d 7.: $.k L -.5X].U.I.8.*.M jXoX6.0.w.OXU 3X1X;.z.p.7.9.K Q } /.d.x.b.c *.- K.U c P.|.G.",
"R ! R R T | %Xp.B.I _.T 1.tXg.p.p.V.W j W S.d.K cXx l yXrXHXJ.d.a.d.v nX&.^.d.}.S x c p.f.AX_.d.;XFX",
"} q.s.z.b.v.=X{.P w w gXK 9Xr - #X=Xv.z.H.i.f.8.L ! @X%X2X+.@X}.u.j.=Xb.H.u.p.b.xXz I %X^.[.x.a.G.;."
};
