/* XPM */
static char *result[] = {
/* columns rows colors chars-per-pixel */
"50 50 177 2 ",
"   c #010101",
".  c #0B0101",
"X  c #0D0901",
"o  c #040B0C",
"O  c #0B0C0C",
"+  c #120001",
"@  c #1C0203",
"#  c #150B02",
"$  c #100C0C",
"%  c #1A1502",
"&  c #060915",
"*  c #060915",
"=  c #0F1717",
"-  c #0B1919",
";  c #061616",
":  c #151415",
">  c #191615",
",  c #171718",
"<  c #161919",
"1  c #1B1B1B",
"2  c #250000",
"3  c #2C0101",
"4  c #240C02",
"5  c #330101",
"6  c #3D0000",
"7  c #211403",
"8  c #201D1D",
"9  c #282604",
"0  c #201F21",
"q  c #1D2121",
"w  c #1E2929",
"e  c #222223",
"r  c #2C2020",
"t  c #232C2C",
"y  c #2B2B2B",
"u  c #243131",
"i  c #353535",
"p  c #3F3333",
"a  c #353A3A",
"s  c #393939",
"d  c #460101",
"f  c #4A0202",
"g  c #550101",
"h  c #5B0101",
"j  c #551717",
"k  c #581E1D",
"l  c #620202",
"z  c #6A0201",
"x  c #760202",
"c  c #7B0202",
"v  c #7B1A1A",
"b  c #691A1A",
"n  c #463801",
"m  c #4C3D05",
"M  c #483D12",
"N  c #573636",
"B  c #702727",
"V  c #7E2A29",
"C  c #7B3838",
"Z  c #713B3B",
"A  c #5B4A06",
"S  c #544819",
"D  c #624F05",
"F  c #655001",
"G  c #6A5A1B",
"H  c #7B6408",
"J  c #364040",
"K  c #3F4444",
"L  c #414141",
"P  c #444B4B",
"I  c #4B4F4F",
"U  c #4F5252",
"Y  c #535353",
"T  c #525B5B",
"R  c #754545",
"E  c #615D5D",
"W  c #5F6969",
"Q  c #616565",
"!  c #6B6767",
"~  c #6D6A6A",
"^  c #767272",
"/  c #7A7777",
"(  c #7B7B7C",
")  c #7F7D74",
"_  c #687878",
"`  c #850101",
"'  c #8F0404",
"]  c #930100",
"[  c #9C0303",
"{  c #910808",
"}  c #8C1111",
"|  c #A40000",
" . c #AE0101",
".. c #B30101",
"X. c #BD0202",
"o. c #B60808",
"O. c #BC0808",
"+. c #8B2424",
"@. c #8B2828",
"#. c #822D2D",
"$. c #883332",
"%. c #C30202",
"&. c #CD0202",
"*. c #C40808",
"=. c #CC0909",
"-. c #D30202",
";. c #DD0302",
":. c #C31513",
">. c #E20202",
",. c #EA0202",
"<. c #F50101",
"1. c #FE0000",
"2. c #FC1616",
"3. c #FC1A1A",
"4. c #E81A1A",
"5. c #E02424",
"6. c #FF2322",
"7. c #846A07",
"8. c #907407",
"9. c #827E7E",
"0. c #C19B09",
"q. c #C7A109",
"w. c #CCA509",
"e. c #D8AE07",
"r. c #D0A708",
"t. c #D4AB09",
"y. c #D9AF09",
"u. c #DCB209",
"i. c #DFB404",
"p. c #D5AE12",
"a. c #E2B707",
"s. c #E5B907",
"d. c #EEBF02",
"f. c #E1B609",
"g. c #E8BC08",
"h. c #F6C707",
"j. c #F1C309",
"k. c #FFD209",
"l. c #F2C81D",
"z. c #848484",
"x. c #8D8E8D",
"c. c #8A8686",
"v. c #928F8F",
"b. c #949292",
"n. c #9D9797",
"m. c #9D9C9C",
"M. c #A19C9C",
"N. c #A3A4A4",
"B. c #AAA6A5",
"V. c #ACAAAA",
"C. c #B2AFAF",
"Z. c #B1B0AD",
"A. c #B3B2B2",
"S. c #B9B8B6",
"D. c #BDBABA",
"F. c #C1B8B6",
"G. c #C1BEBE",
"H. c #FCA0A0",
"J. c #FBB3B3",
"K. c #C3C3C3",
"L. c #C9C5C5",
"P. c #CDCCCC",
"I. c #D0CDCD",
"U. c #D3D3D3",
"Y. c #DCDBDB",
"T. c #FCC6C6",
"R. c #E1DFDF",
"E. c #FDD8D8",
"W. c #E4E4E4",
"Q. c #E9E7E7",
"!. c #EEEEEE",
"~. c #FCEFEF",
"^. c #F5F4EF",
"/. c #F4F4F4",
"(. c #FAF5F5",
"). c #F7F8F8",
"_. c #FCFCFC",
/* pixels */
"_./.).).^._.!._././._.!._.!._././._.!._././.)./.).Q.)./.^.).!._.^.)././._.!._.!.).).!._.!._././._.Q.",
"/.)././.).!._./.).)./.).^._././.).!._./.).)./._._._._._._._.)./.)././._./.)./.).(./.)./._././.(./._.",
"/././.)./.)./././.)./././.).).(./.)./././././.!.z./ ^ ( ^ b./././././././././.).)././.)./.)././.).).",
")./.).)./.)./.)./.).)./.).!.)././.)./.)././._.).o         u _._./.).)./.)./.)./.)././._./.)././.).!.",
"!._././._.!._.!.)././.).!._././.).!._.!././.z.~ } ] { { ] +.~ b._././.).!._.!.)././._.!._.!.).).!._.",
"_.!.).(.^._.!._././.)./._.!.)./._._._._._._.e   <.1.1.1.1.&.  I _._././._.!._.^.).).!._.!._././._.!.",
"!._././._.!._.!.).)./._./._.!._.V.E ~ ! ~ ~ > . ;.1.<.<.1.>.] @.Q M._././._./.)././._.^._./.).)./._.",
")./.)././.)./._././././././._._.Q               ,.1.1.1.1.1.1. .  Q _.)././.)./.(././.)./.)././.)./.",
")././.)./.)./.)././.)././._.S.T $.| | [ | [ [ [ z x <.1.<.<.1.;.[ $.T V._./.)./.).)./.).!.(././.)./.",
"!._././._.!._.!.).)./._.!._.9.  ] 1.1.1.1.1.1.1.    1.1.1.1.1.1.1.]   9._._./.)././._.!._.^.).).!._.",
"_.!.).).!._.^._.!./.).!.)._.c.  { 1.<.<.<.<.<.<...[ l l h ` 1.<.1.-.| $.T C._.!.).).!._.!._././._.!.",
"^.)././._.!._.!._.(./._.!._.9.  { 1.1.1.1.1.1.1.1.<.      3 1.1.1.1.1.x   m._._././._.!._./.).).!._.",
")./.)././.)./.)././.)./.).).U.N.R g h g h g >.1.<.<... ...[ g h f [ 1.&. .C P G._././.).!._././.)./.",
")./.).)./.)./.)./.).(./././._._._           &.1.1.1.1.1.1.%.      h 1.1.1.h   A._.)./.)./.)./.).)./.",
"!._./.(.).!._./.).)./._.!._.N.J @.X.........<.1.1.1.<.1.1.,.......-.1.<.1.&...Z P U._.^.)./.).).!._.",
"_.!.).).!._.!._././.).!._._.z.  ' 1.1.1.1.1.1.1.1.1.1.1.1.1.1.1.1.1.1.1.1.1.1.6   L._._.!._././._.!.",
"!._././._.!._.!.)././._.Z.a V *.;.1.<.1.1.<.1.1.1.1.1.1.1.1.1.<.<.1.1.1.1.1.1.&.X.N P U._././.).!._.",
"_./.).)./.)./._./././._.m.  x 1.1.1.1.1.1.1.1.1.1.1.1.1.1.1.1.1.1.1.1.1.1.1.1.1.1.2   W._.)././.).^.",
"/./././././././.)././._.m.  c 1.<.1.1.1.1.1.1.1.1.1.1.1.1.1.1.1.1.1.1.1.1.1.1.1.1.&.*.N P Q.)./.)./.",
"/.)././.)./._.!.)././._.m.  x 1.1.1.1.1.1.1.1.1.1.1.1.1.1.1.1.1.1.1.1.1.1.1.1.1.1.1.<.. o Q._.).!._.",
"_.^.)././._.!._./._.P.t B &.;.1.1.1.1.1.1.1.1.1.1.1.1.1.1.1.1.1.1.1.1.1.1.1.1.1.1.<.<.-.O.N I !._.!.",
"!._././.).!._.^./._.B.  h 1.1.1.1.1.1.1.1.1.1.1.1.1.1.1.1.1.1.1.1.1.1.1.1.1.1.1.1.1.1.1.<.  : ^./._.",
"_.!.).(./._.!.)./._.D.  l 1.<.1.1.1.1.1.1.1.1.<.f 3 5 5 5 5 2 x 1.1.1.1.1.1.1.1.1.h 3 5 3   q /._.!.",
"/.)././.).).)././._.A.  l 1.1.1.1.1.1.1.1.1.1.<.+             f 1.<.1.1.1.1.1.1.1.3         e /.).).",
"/.)./.).!.i N ).U.w k -.>.1.1.1.1.1.1.1.1.1.1.<.;.X..         + 5 5 @ [ 1.<.1.z 2 +         o e Y _.",
"_.!.).).W.o & _.L.  d 1.1.1.1.1.1.1.1.1.1.1.1.1.1.,..                 c 1.<.1.d                 y ).",
"/.Y 1 e u L.L.t 1   f 1.<.1.1.1.1.1.1.1.1.1.1.1.1.,.  e Y.U.Q.b.      + 3 2 2 .         + -.*.  s _.",
"_.s       ^.Y.      d 1.1.1.1.1.1.1.1.1.1.1.1.1.1.,.  y _._._.A.            o       o   + <.,.  i /.",
"_.s       0 1   .   d 1.1.1.1.1.1.1.1.1.1.1.1.1.1.,.  e _._._./.!.z.  / /.Y.!.L   S.Q.<   <.>.  s _.",
"_.L   o             d 1.1.1.1.1.1.1.1.1.1.1.1.1.1.,.. y ).)._.)._.m.  x._.)._.Y   U._.q . <.>.  i _.",
"_.R.Y.1             f 1.<.1.1.1.1.1.1.1.1.1.1.1.1.<.,.*.; I _._._./.!.( O 1 O V./.)._.q   1.>.  i ).",
"!._._.y   O O       d 1.1.1.1.1.1.1.1.1.1.1.1.1.1.1.1.;.  N )./././._.)   X   C._.!.^.e + <.>.  s _.",
"_.^./.Q.R./.G.      d 1.1.1.1.1.1.1.1.1.1.1.1.1.1.1.1.<.<.o.= > * G l.p.w.r.u.M * = : -.<.1.>.  i /.",
"/.)./.!.Q.^.U., O   f 1.<.1.1.1.1.1.1.1.1.1.1.1.1.1.1.1.1.%.      F d.i.s.s.j.m   X X -.<.1.;.  s _.",
"/././.y   o e !.F.  d 1.1.1.1.1.1.1.1.1.1.1.1.1.1.1.1.1.1.%.  n u.e.g.s.f.s.u.e.t.t.t.7 + 1.,.  i _.",
")././.i O O y _.P.  f 1.<.1.1.1.1.1.1.1.1.1.3.3.2.3.3.3.3.:.  A j.e.r.r.w.y.s.s.a.s.u.9 # >.&.  i ).",
"!._./.!.!.W.!.).L.  d 1.1.1.1.1.1.1.1.1.1.1.T._.~.(.(.(._.F.  n k.7.  X   8.h.f.g.f.f.f.w.#     s _.",
"_.!.)._./._.^._.P.- j ,.,.1.1.1.1.1.1.1.3.3.E._._._._._._.P.& S f.H o % X 7.e.q.w.w.w.r.0.4 +   i /.",
"/.)././.).!._././._.B.  l 1.1.1.1.1.1.1.J._._._._._._._._.)._.B.  F j.u.j.A             X <.>.  i _.",
")././.)./.)./.)./._.D.; b ,.,.1.1.1.3.3.T._._._._._._._._._._.D.& G t.0.t.m   , e q 0 @ 3 ;.=.> Y ).",
"_.!.).)./._./.)./././._.n.  c 1.1.1.H._._._._._._._._._._._._.)._.v.          V._.).).6.<.. , ^././.",
"!._././._.!._.!.)./.!._.B.- v ,.4.3.J._._._._._._._._._._._._._._.N., y e y 1 K._._._.5.&.8 K /./._.",
"_.!.).).!._.!._./.(.).!.)._.z.  b._._._._._._._._._._._._._._._._._._._._._._._._._._.,   !.).!._.!.",
"!._././._.!._.!.).)./._.!._.n.= x.W.U.U./._._._._._._._._._._._._._._._._._._._._.Y.U.s s W._.).!._.",
"_./.)././.)./.)././.)./.)././._.Q       K._._._._._._._._._._._._._._._._._._._._.y   Y._.)././.)./.",
")./.(.)./.)./.(.)./.)./.)././._.c.e s y N.U.P.P.P.U.I.I.P.P.U.P.U.P.P.U.P.P.U.P.U.U i Y.)./././././.",
"!._././.)./.).^.).)./.)./._././.).)._._.i                                         K._.!._.!.).)./._.",
"_.!.)./.!._.!._././.).!._.!._././._.!._.~ y s s s s s s s s s s i s i s s i s s i P.).).^._././._.!.",
"!._././.).^._.!.)././._.!._././.).!._.!._._._._.)._.)._._._._.)._._._._.)._.)._._./._.^._.!.).).!._.",
")./.).)./._./.)././.)./.)./.)././._./.)././././.).!.)././././.)././././.)./.)././.)./.)./.)././.)./."
};
