/* XPM */
static char *result[] = {
/* columns rows colors chars-per-pixel */
"50 50 254 2 ",
"   c #010100",
".  c #0B0609",
"X  c #150606",
"o  c #14140E",
"O  c #060318",
"+  c #370805",
"@  c #251806",
"#  c #331302",
"$  c #30100F",
"%  c #0F3A13",
"&  c #2B250A",
"*  c #342716",
"=  c #0D0E2D",
"-  c #2A1A31",
";  c #0F3A2D",
":  c #2E2D32",
">  c #400006",
",  c #58040D",
"<  c #49150C",
"1  c #5B130B",
"2  c #5E0611",
"3  c #4B1A17",
"4  c #571C15",
"5  c #630212",
"6  c #680F12",
"7  c #690919",
"8  c #6B181B",
"9  c #4C2712",
"0  c #582816",
"q  c #56381A",
"w  c #6D2D18",
"e  c #66371A",
"r  c #6B0D22",
"t  c #720D22",
"y  c #7A0B25",
"u  c #7C0825",
"i  c #6F1B28",
"p  c #741223",
"a  c #791627",
"s  c #573622",
"d  c #513126",
"f  c #672823",
"g  c #772525",
"h  c #6A3828",
"j  c #783A27",
"k  c #124B10",
"l  c #2D511A",
"z  c #166F0E",
"x  c #2B7218",
"c  c #235727",
"v  c #1E6D28",
"b  c #2A732E",
"n  c #367827",
"m  c #2A6A36",
"M  c #49511A",
"N  c #66430E",
"B  c #4B6C19",
"V  c #504431",
"C  c #734F2F",
"Z  c #7A4928",
"A  c #516F26",
"S  c #687C23",
"D  c #2D1254",
"F  c #382B4F",
"G  c #351174",
"H  c #1B2D63",
"J  c #473655",
"K  c #603750",
"L  c #4A2E6E",
"P  c #2D6B4D",
"I  c #2D5F65",
"U  c #4F4D52",
"Y  c #5D695A",
"T  c #564368",
"R  c #694D74",
"E  c #6B6F6C",
"W  c #840D28",
"Q  c #84192D",
"!  c #891832",
"~  c #96163A",
"^  c #8B2A33",
"/  c #844C2D",
"(  c #8B4838",
")  c #8C5738",
"_  c #965E3C",
"`  c #9F1840",
"'  c #A31A43",
"]  c #9E2642",
"[  c #A62846",
"{  c #AE344D",
"}  c #B2384F",
"|  c #B63952",
" . c #935349",
".. c #985556",
"X. c #996546",
"o. c #936F5C",
"O. c #A56B47",
"+. c #AE744C",
"@. c #AC7456",
"#. c #B67B57",
"$. c #9B586C",
"%. c #AC756C",
"&. c #0C8B05",
"*. c #2D9213",
"=. c #12B10C",
"-. c #31B214",
";. c #0F8529",
":. c #08893C",
">. c #188B3C",
",. c #199838",
"<. c #348F2E",
"1. c #289924",
"2. c #269D3A",
"3. c #1BA72B",
"4. c #19A436",
"5. c #1BB831",
"6. c #29A929",
"7. c #39A829",
"8. c #3BAC2B",
"9. c #2BB52D",
"0. c #25BB2C",
"q. c #2CBC2C",
"w. c #34B52C",
"e. c #3BB42D",
"r. c #34BB2C",
"t. c #38BB28",
"y. c #2AA837",
"u. c #38AA37",
"i. c #3CAD3B",
"p. c #2CB432",
"a. c #2CBC33",
"s. c #28BA38",
"d. c #34B534",
"f. c #3BB434",
"g. c #33BB33",
"h. c #3ABC35",
"j. c #34B43B",
"k. c #3AB33B",
"l. c #32B93A",
"z. c #3ABA3B",
"x. c #55911B",
"c. c #48A819",
"v. c #588928",
"b. c #499A26",
"n. c #50932A",
"m. c #469A34",
"M. c #66892A",
"N. c #45A829",
"B. c #45BD2B",
"V. c #45A938",
"C. c #46B734",
"Z. c #55B732",
"A. c #6CB832",
"S. c #11D316",
"D. c #1ADB1A",
"F. c #29CA19",
"G. c #34C51C",
"H. c #25D91A",
"J. c #38D81C",
"K. c #0EE40A",
"L. c #1AE80D",
"P. c #02FF02",
"I. c #0CFE04",
"U. c #07F408",
"Y. c #02FF0B",
"T. c #0CFE0B",
"R. c #13F90A",
"E. c #16E917",
"W. c #1BE41C",
"Q. c #09F517",
"!. c #04FE12",
"~. c #0BFD12",
"^. c #14F815",
"/. c #2FEB12",
"(. c #26E518",
"). c #19C827",
"_. c #1AD925",
"`. c #29C927",
"'. c #2CC32C",
"]. c #37C427",
"[. c #33C32D",
"{. c #26D526",
"}. c #36D424",
"|. c #2CC333",
" X c #28C536",
".X c #36C334",
"XX c #27D333",
"oX c #19E524",
"OX c #32E524",
"+X c #48C529",
"@X c #57C82A",
"#X c #52DA21",
"$X c #4ECD30",
"%X c #6ACD30",
"&X c #0D8A46",
"*X c #168846",
"=X c #189644",
"-X c #2B9147",
";X c #2CAD46",
":X c #38A945",
">X c #38B344",
",X c #539C41",
"<X c #44A446",
"1X c #7E9E7C",
"2X c #33C041",
"3X c #89BB30",
"4X c #CD9320",
"5X c #82C62E",
"6X c #AA887C",
"7X c #C4855B",
"8X c #C8885D",
"9X c #C88B63",
"0X c #CF966F",
"qX c #FFC446",
"wX c #451D84",
"eX c #552B8F",
"rX c #602C9A",
"tX c #633599",
"yX c #5B2AA5",
"uX c #6B37A8",
"iX c #0E58A5",
"pX c #6F518F",
"aX c #7E678E",
"sX c #7247A8",
"dX c #1569C5",
"fX c #8350AF",
"gX c #946EB7",
"hX c #9B67CB",
"jX c #70ADEC",
"kX c #A19A9B",
"lX c #B1B1AD",
"zX c #CA9D82",
"xX c #D8A988",
"cX c #D0AB93",
"vX c #DCB499",
"bX c #DCB49B",
"nX c #E6B593",
"mX c #E1BCA3",
"MX c #E3BFA8",
"NX c #E8C5AB",
"BX c #F4C6A8",
"VX c #AC90C5",
"CX c #9ABBD0",
"ZX c #B8AACF",
"AX c #C1B3D6",
"SX c #ABCDEB",
"DX c #D1D4D6",
"FX c #D7DDE2",
"GX c #DDECEA",
"HX c #E9E9E9",
"JX c #F0EDEC",
"KX c #F4F5F4",
"LX c #F7F8F5",
"PX c #FDFDFD",
/* pixels */
"D.U.P.D.7.q.0.3.y.+XB.9.3.4.d.7.y.,.3.3.3.4.4.].+Xr.9.r.9.0.6.1.5.q.7.7.9.0.9.`./.].p.0.0.D.K.P.U.S.",
"I.I.~.F.j.|.y.:.y.%X+Xr.3.:.&X:.>.*Xv d P 9 m q A.q <.M b.q <.>Xa.`.r.r.a.r.j._.P.F.<Xy.t.T.I.!.H.7.",
"P.D.).d.V.N.N.;Xp.+Xg.d.B.+Xt.9.6.b.4 7 0 7 0 ~ 8 ~ 8 ~ 8 ~ f -..X>X@X@Xf.r.g.z. XE.W.oXE.Y.K.{.`.h.",
"I.{.<X[.`.b.b.g.'.`.;Xd.@X%X].r.<.4 W ~ p [ p } 8 } p { p { ! 4 *.:X@X@Xj.a.'.r.<XL.P.R.I.T.oX<Xk.g.",
"I.OX5X/.T.l.i.t.g.l.g.r.d.8.u.<.8 5 Q { p | y | p | p { a { Q Q f B C.i.&X,..Xq.<XE.P.I.Q.|.r.x.e. X",
"~.J.@XH.Q._.`.q.z.N.t.f. XXX1.4 y ! a | y [ t [ t [ t [ p { a { Q 1 *.`.4.y.u.w.d.}.(.P.Q.>XV.c.-.y.",
"P.S.:X>X X~.R.:XV.x.V.;XL.=.0 2 Q { p [ t ' 7 ' t ' 7 ' t [ p ] Q Q f -..Xu.z 1. X@X%X^.~.0.z..Xy.&X",
"_.}.@Xy.<.R.Y.H.`.m.].E.-.0 y ! Q { t ~ t ' t { 7 ' t { y [ a ~ p [ ! < <.j.2.9.r.B.Z.}.{.[.j.y.,.>.",
";X@X%X*.v R.~.Y.Q.:X{.=.9 5 ! ~ a [ y ` y ' t [ p { y [ p } a [ Q ~ Q ^ h n .X|.a.s.p.l.g..Xj.>.*X*X",
"[.d.y.-X*Xl.{.T.R.L.T.z r W Q ] y ` t ' t ' t ' p | p ' y [ a [ Q ~ W ~ ! l '.s.p.k.V.y.,.3.=X&Xy.u.",
"r.y.:.=X,.:Xg.R.Q.U.=.& a ` Q [ 7 u 5 W 2 y 5 W 5 Q 5 W 5 W 5 u 7 ] ! u r & n ;X'.`.).,.*X-X,.=Xy.].",
";.&X*Xd.+X|.q.V.'.=.f p 7 r W ' , i  .8 ..2 ..6 ..7 ..6  .7  .g u | ! , , y i *.I.~.!.-Xb  Xh.8.{.~.",
",.y.y.6.9.y.y.[.}.=.M r , 2 y W p 6XnX%.vX%.bX%.bX%.bX%.bX%.vXzX! ! t 5 5 r d *.D.Q.Y.5.5.8.C.XXoXP.",
"C.k.z.=X&XP =XY.P.=.s r , 2 5 8 @.NXNXBXmXNXMXBXMXBXMXMXmXNXmXMX#.8 5 5 , r 0 m P K.I.Y.^.S x.Y.T.!.",
"E.W.(.9.y.)._.P.R.*.d r , , , j 0XMXmXmXmXmXmXmXmXmXmXmXmXmXmXMXxX^ , , , r d n -X`.K.^.R.F.F.I.E._.",
"T.Y.T.`.d.^.T.P.L.n d 7 , i 8 g 0XnXNXNXMXbXmXmXbXmXmXmXMXNXNXvX0Xj i 8 , r d <.}.<X:XQ.P.P.!.I.W.f.",
".XoXP.R.E.P.Y.`.i.A f y > h ( g O._ o.%.zXNXmXmXbXmXMXNXzX%.o._ _ g ( h > y f n 0.j.g.{.`.c.G.Y.E.f.",
"C.).U.T.~.Y.{.>X7.x.V 3 + h ( 8 ) / Z Z @.zXxXMXMXMXvX0X@.Z Z Z ) i ^ q + 4 M 7.f.a.g.f.>XA c.P.H.k.",
"r.z.g.R.T.[.d.h.9.l X.@.4 0 j g +.O.+.O./ O.7XxXxXxX9XX.) X.+.O.+.j 8 < 4 O.) M h.r.s.r.p.m 1.P.{.C.",
"q.d.f.H.E. Xl.z.i.% o.bXj < f 2 < # # # 0 X.7X7X7X7X7XX.0 # # # < 1 w < h 9X) l |.r.w.[.j.<.6.P.{.N.",
"l.s.5.f.e.l.d.[.u.% U nX( < f 6 V =     # Z 7X8X8X7X7XN # ; =   * 8 w < f 9XC k V.9.5.k.h.i.[.Y.G.n.",
"d.B.@Xz.s.h.r.'.j.c 9 O./ < 1  .CXiX    * Z 7X8X8X7X7XC * iX=   kX..1 < h X.d z Q.+XA.s.).D.E.Y.H.N.",
"s.$X%X+X0.g.r.q.h.h.*.@ < < 1 %.SX;   iXlX+.9X8X7X7X9X7XcXiX  = SX%.1 4 3 @ A OXP.#X%Xh.s.I.Y.^.L.C.",
"|.t.r.f.:Xk.u.b.N.q.C.m o 1 1 $.GXdXH jXJX#.vX0X9X0XvX7XGXjXH dXGX%.1 4 o v t.'.r.E.R.C.<XP.L.N.c..X",
"l.d.0.|.`.XX'.x.N.r.a. X&.o 1  .FXCXjXSXHX0XbXmXMXmXbX0XHXSXjXCXFX..1 @ c q.0.s.,XoXP.`.[.P.D.M.7. X",
";.-X.X^.I.Y.Q.N.<X;X_.I.&.  X g @.8X0XbXmXMXMXmXcXmXbXNXmXnX0X7X7Xg X   l w.d.j.r.g.d.~.T.Y.oXr.q.g.",
"4.k.N.H.E.R.T._.`.{.H.(.x X + g O.9X7X9XnXvXvXxX@.cXvXvXvX0X7X9X+.g + X l  XD..Xg.9.k.{.W.T.(.>Xa.w.",
".Xc.b.m.g.T.T.I.I.P.H.i.x + 5 2 h ..7X8X8X9X9X9X9X8X9X9X9X9X#.X.h 1 5 + x {.P.{.j.r.h.<Xr.P.R.k.r..X",
"l.d.f.w.a. XW.Y.P.P.XX:XF.b * 9 o @ e O.#.7X8X7X8X7X7X7X#.X.e @ o * 3 c m.G.P._.j.7.N.e.).5.5.>Xh.g.",
"d.r.g.g.z.<Xq.T.T.I.D.d.w.:X2.y.y.<.. X q Z ) X.X.X.) h e @   M _.K.;X<Xv.N.P._.>X7.b.t.2XP -Xs.a.g.",
"Q.6.m D.T.|.d.g.{.I.).*Xy.P eXeXJ f wX= . . o . . o X . X = wXd F wXL 1.L.W.I.(.V.d.'.e.g.a.q.`.V.x.",
"P.).b K.Q.].C.i.`.^.5.*Xd.n kXFXVXeXuXeXtXeXDX6Xh E DXsXrXrXuXfXyXZXlXs *.I.Q.D.w.k.d.r.w.w.g. X7.v.",
"T.^.^.{.w.%X@Xf.w.'.g.:Xx o o : E ZXwXuXrXL HXkXX.kXHXL rXuXuXuXAXPXE $ e *.8.f. Xb.v. Xj.M.v.d.j.u.",
"P.~.T.].>X+XC.r.k.k.q.r.A e _ +.C Y kXF gXeXlXDXkXDXlXtXfXVXtXVXLXE d #._ 9 B k.l.N.N.a.[.-.F.H.{._.",
"Y.P.P.`.j.p.r.'.l.l.'.n N 4XqXqX4XN : eXgXsXHXLXJXLXHXsXgXZXtXD : 9 / 8X7XZ M k.k.d.l.V.`.!.Y.I.I.R.",
"{.G.G.C.>Xd.d.g.p.1.7.M.q & & & & @ $ tXgXsXJXHXKXHXJXsXgXsXwXv 1.% 0 _ +.) q x E.oXE.7.8.`.L.Y.I.P.",
"f.n.v.w. Xz.d.2Xy.x m.x q 6XzXY 0 q o rXsXsXFXHXJXHXDXsXfXeXG -Xi.6.k * j j e B P.~.T.c.n.V.'.^.R.Y.",
"q.l.V.E.P.R.I.R.{.2.H.z N 0XnX7Xw - eXrXL ZXKXKXLXLXKXAXL tXyXL Y n.z   9 N 9 k P.}.%Xf.p.@X$Xs.oXP.",
"0.0.l.(.R.R.^.P.E.[.(.K.x V 9X/ O G hXgXF JXPXJXKXPXPXKXF fXhXeXP N.0.k X X % =.P.#X3Xs.|.@XZ.i.`.E.",
"g.e.:Xg.q.u.q.I.P.I.R.Y.q.k * V m.O = = - JXPXPXLXlXPXPX: - - O <.'.e.6.=.=.K.U.Y.#X%XB. X|.a.g.|.f.",
">X`.{.'.>XV.g.{.E.T.I.P.`.7.x b 1XlXkXkXlXPXPXKXU ; V U   O o.lX1X<X2.6././.T.^.Y.}.Z.h.g.7.t.w.a.g.",
"u.E.P.D.<X`.q.:X XY.I.I. Xk.|.P J E E Y Y U V U D R R L pXaXE E : <.v <.3X#XY.I.U.F.y.s.e.x.b.g.f.|.",
"D.OX$X'.k.6.4.k.|.'.L.P.`.f.|.y.;   . R L R R pXhXT F F F U L L D b p.y.Z..X`.L.P.F.i.l.h.w.r.q.e.n.",
"Y.J.3XZ.0.&X=X'.g.:XH.Y.{.i.r.g.,.; o J J J T U U q C C e # - J I :Xh..X0.a.m.{.P.XXi.g.h.l.g.|.8.x.",
"P./.5X+X X,.,.l. Xs.Z.#X.Xl.g.w.w.p.k   O O   l . K $.pXK * % c *X>.8.w.a.l.<X`.I.`.z. Xt.b.N.f.{.I.",
"Q.J.Z.N.y.4.1.j.e.e.Z.%Xh.a.g.a.g.[.7.c I P v +X  D eXyXG O <.`.y.<. X|.u.B.'.E.P.].V.p.8.m.7.u._.P.",
"2X=X&X&X*X'.e.b.v.x.u.g.q.q.j.:Xk.8.x.<.:.<.N.Y.z P E aXP c S.Y.-.S l.d.n.-.T.Y.P.t.M.b b j.g.u._.P.",
"[.y.y.y.y.d.t.F.t.N.w.s.B.Z.{._._.G.V.y.:X|.W.H.K. Xa.[.+XZ.D.P.G.G.g.d.m.].P.L.W.t.m.=.).d.r._.}./.",
"z.z.C.f.a.,Xg.P.!.|.[.h.A.%XI.P.P.Q.V.w.k.E.Y. X:Xe.t.%X%X5XOXP.I.Y.t.:XV.{.!.XXu.e.g.P.~.<X[.P.OX3X",
"m.H.U.W.E.E.oX}.;X,.y.=Xs.$X3.6.h.oXE.L.(.U.I.`.g.l.|..X+XC.|.{.L.R.oXW.(.L.P.W.u.w.s..XXX{.E.I.(.B."
};
