/* XPM */
static char *result[] = {
/* columns rows colors chars-per-pixel */
"50 50 254 2 ",
"   c #010001",
".  c #090705",
"X  c #1A0604",
"o  c #13170B",
"O  c #070715",
"+  c #160B19",
"@  c #290306",
"#  c #370309",
"$  c #351807",
"%  c #31160E",
"&  c #152E0B",
"*  c #332B15",
"=  c #170F2D",
"-  c #1E1E22",
";  c #26282A",
":  c #373836",
">  c #44040D",
",  c #4C040D",
"<  c #440A0A",
"1  c #56050E",
"2  c #4C150E",
"3  c #5C0512",
"4  c #580816",
"5  c #640614",
"6  c #6C0613",
"7  c #680614",
"8  c #660919",
"9  c #6D0A1D",
"0  c #750818",
"q  c #730B1C",
"w  c #6C161D",
"e  c #6E191F",
"r  c #452A18",
"t  c #512B12",
"y  c #693518",
"u  c #5B1625",
"i  c #680D23",
"p  c #730C22",
"a  c #790E24",
"s  c #6B1524",
"d  c #751428",
"f  c #781633",
"g  c #4F3227",
"h  c #663C24",
"j  c #6D3428",
"k  c #125119",
"l  c #334D19",
"z  c #3B4F18",
"x  c #2E5517",
"c  c #136E0F",
"v  c #347310",
"b  c #1D6B2C",
"n  c #2E742E",
"m  c #47741B",
"M  c #61651C",
"N  c #47512C",
"B  c #72462C",
"V  c #4C6F2C",
"C  c #6A7425",
"Z  c #1D0C49",
"A  c #2A1151",
"S  c #392A4B",
"D  c #36166C",
"F  c #4D2978",
"G  c #61387F",
"H  c #2A724F",
"J  c #236554",
"K  c #474953",
"L  c #675C6F",
"P  c #830D26",
"I  c #84112C",
"U  c #851535",
"Y  c #8B1837",
"T  c #97183B",
"R  c #932439",
"E  c #894A35",
"W  c #8C5636",
"Q  c #935938",
"!  c #996436",
"~  c #9E1A40",
"^  c #A31B43",
"/  c #A91D47",
"(  c #A72C42",
")  c #AE324B",
"_  c #A15D43",
"`  c #9B674C",
"'  c #9B6C58",
"]  c #A66A4A",
"[  c #AF7150",
"{  c #B57453",
"}  c #B77A55",
"|  c #BD7D58",
" . c #149712",
".. c #2A9511",
"X. c #0EAF0B",
"o. c #33AF13",
"O. c #0E882E",
"+. c #0A883C",
"@. c #178A3C",
"#. c #189838",
"$. c #2F8D28",
"%. c #249B38",
"&. c #1BA72B",
"*. c #1AB72C",
"=. c #19A536",
"-. c #1CB735",
";. c #29AA28",
":. c #37A928",
">. c #3AAC2B",
",. c #2BB42D",
"<. c #26BB2B",
"1. c #2DBC2C",
"2. c #36BB24",
"3. c #34B52D",
"4. c #3BB42D",
"5. c #34BB2C",
"6. c #3ABA2C",
"7. c #29A737",
"8. c #38A937",
"9. c #3CAD3B",
"0. c #2CB533",
"q. c #27B837",
"w. c #2CBC33",
"e. c #2CBC3B",
"r. c #33B534",
"t. c #3BB434",
"y. c #33BB34",
"u. c #3ABC34",
"i. c #34B43B",
"p. c #3AB33B",
"a. c #32BA3A",
"s. c #3ABA3B",
"d. c #528C1B",
"f. c #55951B",
"g. c #6A881D",
"h. c #48A717",
"j. c #4A8D27",
"k. c #568E28",
"l. c #4A9B25",
"z. c #469B35",
"x. c #66922F",
"c. c #45A728",
"v. c #52AA2B",
"b. c #45BD2B",
"n. c #45A937",
"m. c #46B734",
"M. c #56BB36",
"N. c #6ABA34",
"B. c #14D517",
"V. c #15D819",
"C. c #1CDC1B",
"Z. c #2AC918",
"A. c #34C61C",
"S. c #25D81A",
"D. c #39D918",
"F. c #0AEC08",
"G. c #19E70C",
"H. c #02FF02",
"J. c #0CFE04",
"K. c #08F408",
"L. c #03FF0B",
"P. c #0BFE0B",
"I. c #13F90A",
"U. c #0BE315",
"Y. c #17E817",
"T. c #1BE41C",
"R. c #09F517",
"E. c #04FE12",
"W. c #0BFD12",
"Q. c #14F716",
"!. c #2FEB12",
"~. c #26E518",
"^. c #15C72B",
"/. c #1CC928",
"(. c #1AD825",
"). c #29CA27",
"_. c #2CC32C",
"`. c #37C427",
"'. c #34C42C",
"]. c #26D525",
"[. c #36D424",
"{. c #2DC334",
"}. c #29C536",
"|. c #33C232",
" X c #3AC233",
".X c #33C43A",
"XX c #2AD032",
"oX c #18E524",
"OX c #31E523",
"+X c #49C52A",
"@X c #57C82A",
"#X c #4DD825",
"$X c #52DA21",
"%X c #46C838",
"&X c #59C634",
"*X c #6BCD2F",
"=X c #0D8A46",
"-X c #168846",
";X c #189743",
":X c #299247",
">X c #19A148",
",X c #2BAE45",
"<X c #38A945",
"1X c #37B443",
"2X c #4F9C44",
"3X c #44A546",
"4X c #5BB55C",
"5X c #73AB7C",
"6X c #33C041",
"7X c #A6832D",
"8X c #89BB30",
"9X c #82C62E",
"0X c #9E8E79",
"qX c #B68B70",
"wX c #C6865B",
"eX c #C3855C",
"rX c #CB8D63",
"tX c #C68D68",
"yX c #CF946D",
"uX c #D7A07B",
"iX c #481C88",
"pX c #502987",
"aX c #612F9B",
"sX c #7038AD",
"dX c #004190",
"fX c #724C95",
"gX c #786089",
"hX c #7544A6",
"jX c #3E7ECA",
"kX c #864EB5",
"lX c #8E67B8",
"zX c #9962C8",
"xX c #4B92D8",
"cX c #7AC6FF",
"vX c #999694",
"bX c #A8ABAD",
"nX c #B5B6B5",
"mX c #C69783",
"MX c #DBA886",
"NX c #D1AC92",
"BX c #DBB49A",
"VX c #E6B897",
"CX c #D3B8A9",
"ZX c #E3BEA4",
"AX c #BFC1BE",
"SX c #E8C4AC",
"DX c #E9C8B3",
"FX c #B28ECD",
"GX c #C0BFC5",
"HX c #BFC5D5",
"JX c #CCCCD1",
"KX c #D5CCE4",
"LX c #E7EAE3",
"PX c #FCFCF8",
/* pixels */
"C.K.H.B.3.1.,.&.7.+Xb.,.=.=.r.:.7.=.;.&.;.=.=. X+X1.,.1.,.<.;.&.*.1.:.:.,.<.,._.!.`.0.<.<.C.F.H.F.B.",
"J.J.W.Z.i.w.0.+.7.*X+X2.&.+.=X+.@.-X@.+.-X-Xb &X*Xy.w.u.6.t.t.s.w.).6.3.y.5.i.T.H.Z.3Xi.5.P.J.E.S.:.",
"H.C./.t.3Xh.:.,Xr.b.y.r.b.@X3.,.0.,.7.XXF.F.oX2.v.|.{.1X].T.oXG.|.,X@X@Xy.'.r.p.{.U.C.oXY.H.G.)._.u.",
"H.].3X'.`.l.z.u._.<.e.r.@X$Xb.1.a._.9.$...o...$.V v v V ].H.P.J.A.<X#X@X1Xr._.1.3XY.H.I.J.P.oXn.i.y.",
"H.OX9X!.L.w.n.2.|.}.y.u.r.4.t.1Xt.n V U Y d I I f I I q m ..S.e.h.f.t.9.=X>X X_.n.T.H.J.R.{.5.k.>.}.",
"E.D.N.~.R.(.).1.w.c.2.p.}./._...M I q ) ) R T T T T ~ q p 6 z V n.f.S./.#.7.>.5.u.].!.J.R.1Xn.h.:.q.",
"H.V.<X1X.XE.I.<Xn.g.z.1XG.F.m q d ( 6 d q a a a a a 7 5 T a d p z 8.W.P..X7.c $.{.&X*XI.W.{.a. X7.+.",
"(.[.@X7.$.I.E.S.).z.'.T.T.v R ( q w p ) ^ ~ T ^ T ^ q 6 q 8 Y I 1 x F.J._.r.%.0.y.b.M.].(.5.r.7.#.#.",
",X&X*Xo.b I.W.H.R.<X].F.v T ( 3 d ( q d d p p p a 7 5 5 T a q 9 5 1 v U.r.t.u.|.w.w.<.r.y. X,X@.-X-X",
"'.7.%.%.@.a.].P.I.G.G.v T T 7 5 0 w p ) ) ^ ~ ^ ^ q 6 6 q 7 T I , 3 1 l :.5._.w.0.p.3X7.%.&.;X=X7.8.",
"5.7.+.;X#.<Xa.F.R.L.v R ( 5 5 6 R ( 9 q d p p p 7 5 5 5 T P 7 3 a 3 1 3 x a.1Xe._.)./.#.=X:X#.#.8.`.",
"O.=X-X8.%X{.'.n.'.J.v I T 6 9 R ) 6 9 / ^ ^ ^ ~ q 6 6 q q 5 6 3 Y i 1 3 * #.n.T.J.W.E.:Xn }.u.8.(.E.",
"%.#.7.;.,.0.7.`.].H.j.t I P a ( 5 1 6 6 a p p p 9 p 9 5 T I , 7 4 3 4 4 8 l s.S.V.P.L.*.-.4.m.XXT.L.",
"s.m.a.;X=XJ ;XL.H.P.j.! ] p s d w e e d ) / ^ ^ ^ ^ / P > Y 8 Y i U p f f l u.:XJ U.J.L.Q.C f.H.P.E.",
"Y.T.~.,.7./.(.H.I.C.m ' ZXBXBXNXNXBXVXmXa ^ p p p 8 8 / 4 5 , Y i U p f U l 5.3.:X).Y.Q.J.Z.Z.H.Q.(.",
"P.L.J.`.t.Q.P.H.C.8.m [ DXZXZXZXZXZXSXNX3 i ~ / / ^ 8 ~ u 3 , 8 , U d f U l e..X`.n.<XR.H.L.E.P.V.n.",
"'.oXH.G.Y.H.L.].m.x.m ' ZXZXZXZXZXZXDXmXj qXf 7 q i 5 q , 5 , 5 , U f f U l 5.e.<.i.y.Z.2.h.A.H.G.9.",
"m./.L.P.W.P.].1X3.l.N Q MXZXBXBXBXBXZXmXe rX{ 8 T ( 9 6 > 5 , 5 , U p f f l 3.3.u.w.y.p.9.x.h.L.S.9.",
"5.p.y.I.P.XXp.y.0.@.N W rXyXwX` y h B j w wXwX8 p / p 0 > 5 , 3 , Y d f U * =X7.u.5.e.{.i.b &.H.].m.",
"1.t.4.S.Y.w.r.s.7.=XV E } wX| Q ! [ { _ w wXeXe _ d 5 2 2 t > 5 , U p a U l =.-.{.2.4.'.a.n ;.H.S.n.",
"e.e.-.t.>.a.a.'.7.O.%.C ! rX] y y h h B w wX} e eXe 2 y W B t , # 9 1 f Y z 1.1Xt.,.q.t.r.n.'.H.[.j.",
"y.b.@Xs.w.r.5._.y.7.6.d.! rX! $ . X 2 t e wXwXe ] e 2 W MXtXy < # 5 , U U z M.[.Y.+XM.e.^.T.T.L.S.v.",
"w.+X*X X}.1.5.1.y.s.%Xg.Q rX} L dXo 0X' e wXeXw [ { ] ] BXuXt @ @ 1 3 4 8 z *X#XH.$X*Xu.e.J.L.W.G.m.",
"{.`.`.n.3X1X>.l.c.5.m.V ! wXwXL = K LXvXe wX} w } rXrX[ rX] X @ @ , 4 1 3 z 2._.w.Y.I.m.n.H.G.v.o.'.",
"r.r.<._._.XX_.l.v.5.w.V ` VXmXy O xXPX0Xe eX| w { rXeX} W $   1 # 4 > , 3 l <.e.2XT.L.).'.H.C.x.n.{.",
"b ,X.XW.J.H.Q.c.3X7.;.M tXDXMX' jXcXPX[ w wX| e { rXrXr o . @ 6 # , # , 5 z r.1X5.r.t.E.P.L.(.6.1.y.",
"=.8.c.S.Y.J.L.].).].d.Q MXSXBXCXHXCXMX[ e eX| e } rX{ B X @ , 6 # , > > 4 x T.'.y.,.s.].Y.P.T.1Xw.5.",
".X2.f.2Xt.P.J.L.J.H.m W tXMXZXSXVXyXwX[ e eX| e } rX] h # , 6 0 # 4 > > , k H.].a.5.t.<X5.J.I.m.3. X",
"a.0.>.r.w.XXC.L.H.H.r.N B tXMXuXyXeXrX[ e wX} w [ eX` B % @ # > X @ X @ @ o  .oXi.:.l.6./.^.-.1Xr.y.",
"t.r.|.y.p.3Xw.P.P.J.C.$.& h _ | tXtXrX[ e wXwXE ] ] ] } % @ @ # X u U i , # k (.1X:.l.6.,XH :Xa.y.w.",
"R.;.n B.P.|.3.y.].P./.@.#.& $ B ! ] eX] e wXeXeX[ W W h @ > 8 > @ 4 s 4 , * X.T.n.r.}.3.r.w.w._.n.f.",
"H./.n U.P. Xt.9.Z.W.-.-X0.:.v & @ @ 2 $ @ r * g r X X b % , , # @ X X X & B.I.(.3.p.3.6.3.5.w.}.c.d.",
"P.Q.Q.].r.*X&Xu.3._.a.<X@X@Xh.j.n K gXL = A S O S K D J H * # # @ X > > c L.m.t._.l.k.w.p.C f.0.i.8.",
"H.W.P.).i.+Xm.2.t.p.1.a.&X*Xn.9.4XbXLXAXD sXhXaXFXFXzXhXJ = # @ > # , , c G.9.p.w.n.c.e.1.A.Z.].].(.",
"P.H.H.).1X0.5._.a.e.).0.&X*Xv.5XGXAXbXL fXkXiXF zXsXhXaXlX; # # 4 > 4 4 c Q.,Xi.t.a.a.9.).E.L.J.P.J.",
"S.A.2.m.1Xr.4.w.0.$.:.q.[.D.x.bXPXPXKXiXFXgXiX= Z FXvXFXvX; i # i > f f k .X4.].T.Y.Y.c.>.).G.L.J.H.",
"t.k.k.>.}.a.r..X7.v z.a.G.o.! NXJXPXGXpXzXiXsXsXA vXbXbXN r f s f i d r b w.n.].H.W.P.h.j.n._.Q.I.L.",
"w.e.n.Y.H.I.J.Q.(.%.Z.Q.G.c * 7XqXJXGXiXsXaXhXkXkX+   % [ | % 4 * u r X.L.].<XXXH.[.*Xt.r.&X&X{.C.H.",
"<.}.r.~.I.Q.F.H.Q.s.G.H...y t * B nXJXD iXlXlXkXkXg y tXuX{ 2 o $.& c K.H.~.w.Y.H.#X8Xe.{.@X&X7.XXY.",
"w.4.<X5.2.i.|.J.H.P.J.H.o.r y B ; nXHXA hXFXFXzXkXg Q MXSXqXr b ,Xx n +XL.P.P.Q.H.#X*X6.{._.y.w.w.u.",
"1X_.S._.1Xn.y.].Y.L.J.H.).$.o y j vXHX= gXgXfXG F O W | mXqXu b o.u.:X;.!.!.P.I.L.[.M.a.0.:.2.r.w.y.",
"8.Y.H.(.3X).5.<X}.L.J.J.}.p.n = A : KXN : : : : : g B j _ Q - b 0.b.O.$.8X$XL.J.L.Z.8.}.4.d.l.u.t.e.",
"S.].#X6.p.=.=.p.{.XXG.H.).r.n Z A S nXJXbXnXnXnXnXbXo $ B % A J w.y.7.0.M. X).Y.H.).9.r.r.6.5.1.4.l.",
"H.OX8Xm.<.;X;X2.y.<XS.L./.r.$.o ; F               = - = = pXD $._.e.u.|.<.w.z.).H.].n.w.y.a.y.{.c.f.",
"H.!.8X+X}.#.#.y.{.}.M.$X Xi.y.;.b = O o o X   . . pXkXfXfXhXF H >X@.>.b.{.1X<X].J.).i.}.b.l.:.9.].J.",
"W.[.M.b.7.=.%.r.4.>.M.*X|.w.0.$.= hXkXeX| W . * y + O . . O .  .7.@.}.{.t.6.'.Y.H.2.n.3.>.z.:.8.(.H.",
"6X>X=X=X-X_.6.j.d.k.7.y.<.<.8.n = iXhXhXiXA O A D D A . ..,XV.L.o.C r.r.j.h.P.E.H.2.x.n b s.u.8.(.H.",
"`.7.%.%.7.a.2.Z.2.c.3.e.m.@X].(. .o = pXD O A F iXD o $.+Xm.T.H.D.Z.|.r.z.A.L.G.T.2.v.X.^.0.6.(.[.!.",
"t.u.m.u.w.2X5.H.W.{.{.y.N.*XP.H.H.U.8.8.8.V.U.q.<X8.:.&X*X9X!.L.J.L.6.1X9.).E.XX8.4.w.H.P.3X'.H.OX8X",
"z.S.K.T.T.Y.oX[.,X#.7.;X'.%X&.o. X(.T.G.S.L.P.).a.y.y. Xb.b..X].G.I.oXS.~.G.H.T.9.3.e..XXX].G.L.~.b."
};
