/* XPM */
static char *result[] = {
/* columns rows colors chars-per-pixel */
"50 50 253 2 ",
"   c #010100",
".  c #0C0708",
"X  c #140706",
"o  c #151311",
"O  c #280207",
"+  c #350407",
"@  c #3B030B",
"#  c #2E160D",
"$  c #341509",
"%  c #1F370B",
"&  c #3D2D12",
"*  c #190B2B",
"=  c #150C38",
"-  c #2B1730",
";  c #33332F",
":  c #480807",
">  c #44040D",
",  c #4B040D",
"<  c #58030D",
"1  c #4E190F",
"2  c #4D0715",
"3  c #540612",
"4  c #5C0512",
"5  c #5A0A1C",
"6  c #640513",
"7  c #6B0614",
"8  c #690919",
"9  c #730B1C",
"0  c #770A1C",
"q  c #6C161D",
"w  c #4E2F10",
"e  c #552817",
"r  c #67361A",
"t  c #7E3F1D",
"y  c #5A0F25",
"u  c #6B0F26",
"i  c #750D24",
"p  c #7B0D25",
"a  c #7B0D28",
"s  c #6C1625",
"d  c #761624",
"f  c #7D112A",
"g  c #751431",
"h  c #7D1331",
"j  c #52382A",
"k  c #733227",
"l  c #174F18",
"z  c #305517",
"x  c #156C11",
"c  c #2A6815",
"v  c #185126",
"b  c #264722",
"n  c #1C6F2C",
"m  c #28722A",
"M  c #5C6E1F",
"N  c #7B4729",
"B  c #714D30",
"V  c #4D6A24",
"C  c #477628",
"Z  c #577325",
"A  c #29104E",
"S  c #2A2158",
"D  c #381377",
"F  c #4B2A54",
"G  c #4C2D72",
"H  c #3B5946",
"J  c #196C49",
"K  c #2D6D4F",
"L  c #4F524F",
"P  c #5B5B5B",
"I  c #73655D",
"U  c #810F28",
"Y  c #85152C",
"T  c #8D0C34",
"R  c #871536",
"E  c #8C1433",
"W  c #941639",
"Q  c #97183A",
"!  c #912D36",
"~  c #A0233F",
"^  c #844D30",
"/  c #87583B",
"(  c #955B3A",
")  c #A36823",
"_  c #971B43",
"`  c #A51C45",
"'  c #A62945",
"]  c #B1304D",
"[  c #976444",
"{  c #9C6A5A",
"}  c #A76A4B",
"|  c #A97055",
" . c #B87755",
".. c #B97855",
"X. c #985E64",
"o. c #AA7962",
"O. c #C47B4C",
"+. c #148706",
"@. c #2D9616",
"#. c #19AC0C",
"$. c #32B216",
"%. c #11872E",
"&. c #09883C",
"*. c #178A3C",
"=. c #189838",
"-. c #2F8F2D",
";. c #259E3A",
":. c #1BA72B",
">. c #1AB72C",
",. c #19A536",
"<. c #1CB735",
"1. c #29A828",
"2. c #39A829",
"3. c #3BAC2B",
"4. c #2BB42D",
"5. c #26BC2B",
"6. c #2CBC2C",
"7. c #36BB24",
"8. c #34B52C",
"9. c #3BB42D",
"0. c #34BB2C",
"q. c #3ABA2C",
"w. c #2AA837",
"e. c #37A837",
"r. c #3CAD35",
"t. c #3CAD3B",
"y. c #2CB433",
"u. c #26B937",
"i. c #2CBC34",
"p. c #2BBC3B",
"a. c #34B534",
"s. c #3BB433",
"d. c #33BB34",
"f. c #3ABC34",
"g. c #34B43B",
"h. c #3BB33B",
"j. c #32BA3A",
"k. c #3ABA3B",
"l. c #56921A",
"z. c #48A819",
"x. c #588928",
"c. c #4A9B25",
"v. c #529429",
"b. c #469A34",
"n. c #62892E",
"m. c #44A729",
"M. c #45BC29",
"N. c #52B429",
"B. c #45AA38",
"V. c #46B735",
"C. c #56BB36",
"Z. c #6AB634",
"A. c #16D212",
"S. c #16D816",
"D. c #1CDC1B",
"F. c #2ACA19",
"G. c #34C51C",
"H. c #26D81A",
"J. c #38D81C",
"K. c #0AE50D",
"L. c #1AE80D",
"P. c #02FF02",
"I. c #0BFE04",
"U. c #09F509",
"Y. c #03FF0B",
"T. c #0BFE0B",
"R. c #13F608",
"E. c #13FC0C",
"W. c #17E817",
"Q. c #1BE41C",
"!. c #09F617",
"~. c #04FE12",
"^. c #0BFD12",
"/. c #14F716",
"(. c #2FEB12",
"). c #25E518",
"_. c #0CC320",
"`. c #1ACA27",
"'. c #1BD925",
"]. c #29CA27",
"[. c #2CC32C",
"{. c #37C427",
"}. c #33C32C",
"|. c #26D525",
" X c #36D424",
".X c #2CC333",
"XX c #28C536",
"oX c #33C232",
"OX c #37C436",
"+X c #2AD032",
"@X c #19E524",
"#X c #31E523",
"$X c #48C42A",
"%X c #57C82A",
"&X c #52DA21",
"*X c #4ECD30",
"=X c #6BCD30",
"-X c #0D8A46",
";X c #158946",
":X c #189743",
">X c #258849",
",X c #2A9947",
"<X c #2BAF45",
"1X c #38AA45",
"2X c #37B444",
"3X c #4F9D46",
"4X c #44A546",
"5X c #55AF5C",
"6X c #60B04A",
"7X c #33C041",
"8X c #89BB30",
"9X c #F5B53E",
"0X c #82C62E",
"qX c #AB8770",
"wX c #C4855C",
"eX c #C7895F",
"rX c #CA8A5F",
"tX c #C98C61",
"yX c #C88C67",
"uX c #D1966E",
"iX c #D7A27D",
"pX c #003D83",
"aX c #542B8E",
"sX c #572798",
"dX c #643A8C",
"fX c #61738A",
"gX c #7A47AD",
"hX c #773AC3",
"jX c #AB6C94",
"kX c #864EB7",
"lX c #9676B2",
"zX c #9356C4",
"xX c #9E72C2",
"cX c #6FB6F9",
"vX c #898590",
"bX c #959893",
"nX c #AB8DA9",
"mX c #ADAFAF",
"MX c #D7A686",
"NX c #D4A791",
"BX c #D8AF97",
"VX c #E1BCA3",
"CX c #C7CABC",
"ZX c #E9C6AC",
"AX c #F1CFB4",
"SX c #AE8BC9",
"DX c #BAB4C5",
"FX c #C3BBD2",
"GX c #B4C7D7",
"HX c #CDCAD3",
"JX c #E3D8DD",
"KX c #EAEBEA",
"LX c #FDFEF8",
/* pixels */
"D.U.P.A.8.6.4.:.w.$XM.5.:.,.1.2.w.,.:.:.:.,.,.7.$X7.4.6.6.5.1.-.5.5.2.2.6.5.5.+X(.{.y.4.5.D.L.P.U.A.",
"I.I.T.].g..Xw.&.1X=X$X7.:.&.-X-X*.>X*.&.>X;X-XZ.=X0.y.9.7.s.j.OXy.].8.8.i.7.e.D.P.F.4Xw.7.T.P.~.H.2.",
"P.D.`.s.4Xz.2.<X4.M.d.a.M.%X3.y.y.1.u.w.w e e e e e e e w $.Q.W..X<X%X%Xj.6.d.k.XXL.Q.@XW.P.L.|.[.f.",
"P.|.4X0.].v.m.f.[.].<Xa.%X&X{.0.d.2.e e 9 ` ` ` ` ` ` ] ] r w A.G.1X&X%Xh.a.0.i.4XW.P.E.I.Y.'.4Xg.d.",
"I.#X0X(.T.y.B.7.j..Xj.q.a.w.t.-.e e U W 7 i f p p p d f g 9 ' k w M 9.3.-X,.OX.XB.Q.P.I.!..X0.l.3.XX",
"~. X%XH.!.'.].6.k.m.7.h.XX+X@.$ U W 7 i 7 9 Q Q _ Q Q Q ] d q 9 ~ k @.].=.w.e.a.a.|.).P.!.2XB.z.2.u.",
"P.S.1X2XXX~.R.2Xm.l.B.<XL.#.w 6 9 9 0 W 6 7 f p p p d d f 9 ! f U ] r $.OXw.x @..X%X=X/.!.[.g.OXw.&.",
"'. X%Xe.-.R.~.H.].b.OXW.#.w 4 < U T 8 p 7 7 7 Q Q Q Q ' ] d d 0 < Y ' q -.g.;.4.d.M.C. X|.}.a.w.,.*.",
"<X%X=X@.m L.~.P.!.1X|.#.w 4 , 4 9 p p E 8 7 7 f U f a Y ! 9 Q d 6 6 0 ' k C OXd.i.d.4.a.f.}.<X*.;X;X",
"}.w.e.;.;Xp.|.Y.R.L.T.x 4 < 5 W 4 7 7 f 7 7 7 7 W Q W W R 8 Y ] i 6 < ~ ~ j [.a.y.2XB.,.;.:.:X-X,.e.",
"7.;.&.:X=.1Xj.R.!.I.#.& < , 8 i 6 < 9 E 7 6 6 6 f U R f E 0 4 Y ] p a T q V h.i.[.].].=.;X>X=.=.w.$X",
"%.-X;Xg.$XoX[.B.[.P.c 9 u u u 3 a 2 Q u 7 W W W E W Y ~ 7 < < < a 8 7 ! N V h.Q.T.E.T.>X*.XXf.r.|.^.",
"=.w.w.1.4.w.w.}. XP.c h R u R u _ 2 f > Q E R E T T ] ' } { X.| { { { uX| V h.'.S.!.T.`.u.9.V.+XQ.Y.",
"V.h.k.:X;XJ :XP.P.Y.c h h u R 5 a , 4 5 ' 6 Y E R T U 4 MXAXAXVXZXZXZXAX| M OX,XJ K.I.~./.Z l.P.T.Y.",
"W.Q.).4.e.`.'.P.R.D.z f h u R , 4 , 6 2 Y 7 E E T E / u MXVXVXVXBXVXVXZXo.C 0.3.,X].S./.R.F.F.P.W.@X",
"T.Y.T.].a./.^.P.Q.e.z Y h u R , 6 , 7 > 7 8 f f 3 ! iXg NXAXAXVXZXVXZXVX[ V p.d. X4X1X!.P.Y.~.I.Q.t.",
"OX@XP.R.W.P.I.|.V.n.b h h u R , 6 , 6 , 7 9 ] T 9 ..tXq { qX{ { yXMXMXiX/ Z d.p.6.2Xd.F.{.z.G.P.W.r.",
"V.`.U.T.^.Y.|.2X9.l.b h h u W , 6 , 4 > 4 7 Q k q ..tXd N ^ N r / ..wXwX( V a.8.7.i.d.h.t.n.z.P.H.g.",
"0.h.d.R.T..Xr.d.y.*.b h R 5 a > 4 $ w r w 3 q  .d ..eXq ( } } ) ^  .rX} B -.n w.f.0.p.[.k.n :.P.|.V.",
"6.a.f.H.W..Xg.OXw.;Xb R R , 6 @ : r [ wXt 1 6  .d ..eXq 1 1 $ $ : ( uX( x.4.,.<.XX7.q.}.2Xm 1.P.|.m.",
"j.u.XXe.3.j.d.}.w.%.b i g , 6 + : r iXVX[ t ^  .q  .tXq r B o = j } uX( x.%X6.2XB.4.u.r.d.B.}.P.J.v.",
"a.M.%Xd.u.f.d.[.j.w.z 4 4 3 3 O O o tXiX| eXtX..q  .eXq qXCXb pXfXO.rX( M C.C. XW.$XC.p.`.W.W.Y.H.v.",
"u.*X=XOXu.0.0.}.f.k.z 6 3 3 3 O @ . r  .| eXtX..s ..tXs vXLXfX. r yXiX( C q.0X#XP.&X=Xf.p.I.Y.^.L.V.",
"oX{.7.V.1Xh.r.c.m.}.z 6 , @ 3 @ 7 X . e / eXtX..q ..wXe qXKXcXS B MXZXo.M s.7.[.i.W.E.V.4XP.L.c.z.+X",
"g.4.i.[.].+X].c.c.d.z 4 > @ 3 @ 7 @ X   & wXtX..q ..tXq } AXGXcXnXiXZXiX) Z XXy.3XD.P.].}.P.D.n.2.XX",
"%.,X.X/.I.Y.W.m.B.w.x 2 2 > 2 @ 0 < > $ B } tX..q ..tXq } tXBXAXVXVXVXiX( V a.g.0.i.s.^.T.Y.Q.0.6.d.",
",.e.3.H.W.R.Y.|.].5.x : > + > + 7 4 > + e { eXwXq  .wXq } tXwXMXVXVXiX| N Z Q.OXd.6.2X|.W.T.).2Xi.0.",
"*X2.l.b.d.T.I.P.I.x X O O @ O X O O X # } { | ..d wXeXq } tXeXtXrXwX| & c |.P.|.g.0.f.1X0.I.R.h.8.OX",
"j.y.s.a.i.XXQ.Y.P.x @ 7 h ` u X > , + # [ } [ } } wXeXd } tXwXwX} N % v b.{.P.@Xg.3.m.9.+X>.<.2Xa.d.",
"s.8.oXj.k.4Xi.T.Y.U.x O O O @ + + 7 , O o e r ( [ [ ( 5 ^ [ k r o . x B.x.z.P.'.1X2.c.7.7XJ >XOXj.i.",
"!.4.m S.T..X8.j.|.P.>.l O + X + + + , ; ;.o o . . o o . o o o X m $.!.Y.L.Q.I.D.B.a..X9.8.u.6.].B.l.",
"I._.m S.^.{.V.t.].!.<.b > 3 O @ O + ; -.G gXlXlXA dXgXD DXJXbX4Xh.t.W.Y.I.P./.D.8.h.8.0.8.0.d..X2.x.",
"T././.|.a.=X=X9.8.[.p.b 2 , @ 3 O + . aXgXxXzXSXgXsXgXS vXmXbXbX5Xu.m -.T.!.B.s.[.m.l.p.h.M l.j.g.e.",
"P.!.T.{.g.$XV.5.B.g.6.c s g + 3 + : ; DXaXsXkXdX- D lXlXaXDXKXKXmX6X-.w.^.W.4Xj.j.m.2.p.0.G.F.|.|.'.",
"Y.P.P.].2X4.8.[.p.2X].l s g 5 g 1 R o H JXJXFX* D sXsXxXaXDXLXKXmXZ.B..XY.W.g.g.h.j.j.B.|.~.I.T.I.E.",
"H.G.G.V.2Xa.a..Xy.@.w.w.c u g y h 1 [ / b H S dXkXkXaXkXaXDXKXmXX.w @.).+Xj.8.|.Q.W.W.m.e.].L.P.I.P.",
"r.v.x.9.XXg.a.OXw.c b.j.S.x l x 1 w wXrXN O $ kXkXkXgXsXD FXCXI ^ N w $.s.4.B.|.P.^.T.z.v.3X[.!.E.Y.",
"i.j.B.W.P.R.I./.|.,XH./.P.+.% 7.x X w 9X9X) r kXzXxXSXaXA HXDXB ( N 1 @.U.D.1X+XP. X=Xs.8.%X*X.XD.P.",
"5.XXy.Q.R./.U.P./.oXL.P.R.A.@.2X-.w j w & # o kXzXSXSXxXA DXCXB t # c K.P.#Xu.Q.P.&X8Xp..X%XC.e.[./.",
"d.9.1Xq.{.e.oXI.P.I.U.Y.XXa.d.d.-.w } j w j . * * - ; -   DXI S # l B.oXP.I.T.^.Y. X=XM.XX[.d.i.u.9.",
"2X[.H..X2XB.oX|.W.Y.I.P.].B.q.g.J = j } r j bXbXbXbXbXbXmXKX; A A -.;.2.#X(.T.E.Y. XC.d.4.$.2.j.i.j.",
"e.W.P.|.4X].0.1XXXY.I.I.XXh.d.p.J A A $ X   L P P P P P P P G A = m x -.8X&XY.I.I.F.e.p.V.l.c.d.f..X",
"D.J.&X{.h.,.,.k..X+XL.P.].r..Xp.J sXgXG G dXF               - v n -.y.w.%X}.].L.P.].t.p.d.9.8.[.9.v.",
"Y.#XZ.N.y.:X-X7.d.1XH.P.'.r.0.a.n - S F F F S 1 $ . j / / F S ; 1.u.f.oXu.y.b.|.P.|.B.i.d.d.j..X2.l.",
"P.(.0X$XXX=.=.j..Xu.=X&XOXg.d.0.-.x n l   * A - - . F X.jXzXhX= v =.7.M.p.p.4X].I.].h.XXM.c.2.r.|.I.",
"!.J.C.m.w.,.1.e.8.2.C.%Xf.i.0.j.}.}.3.3.l = D aXD * * aXsXG A l %.*.u.XXr.V.[.W.P.7.B.y.3.b.2.e.'.P.",
"7X,X-X-X;X[.9.l.x.l.e.j.6.i.e.2X2Xm.l.-.-Xl H >X>XK l H K v x K.z.M d.s.l.$.T.Y.P.7.x.m m j.f.e.'.P.",
"].w.;.w.w.g.6.F.7.r.8..XV.N.|.'.@X].v.w.,Xu.D.H.H.u.p.f.$XV.W.P.J.G..Xg.b.{.Y.L.Q.7.B.$._.a.0.'.#X(.",
"f.j.V.s.i.3X}.P.!..XoXa.Z.=XI.P.P.!.h.7.t.W.Y.XX1X9.7.=X=X0X).Y.P.Y.7.2XB.].^.+Xg.9.d.P.T.4XoXY.#X8X",
"b.H.U.Q.Q.W.@X Xp.=.w.:Xi.*X:.1.OX'.Q.L.).U.I.].j.j.oXOXM.M.OX|.L.R.@XQ.).W.P.Q.e.8.p.oX+X|.L.P.).N."
};
