/* XPM */
static char *result[] = {
/* columns rows colors chars-per-pixel */
"50 50 250 2 ",
"   c #070706",
".  c #180403",
"X  c #051708",
"o  c #0F0E10",
"O  c #2B0207",
"+  c #380208",
"@  c #27190A",
"#  c #2E0419",
"$  c #0C2809",
"%  c #133512",
"&  c #32310F",
"*  c #170B2D",
"=  c #231A2B",
"-  c #290E35",
";  c #2F2231",
":  c #3A3A3D",
">  c #47040D",
",  c #58030E",
"<  c #570613",
"1  c #501114",
"2  c #60030F",
"3  c #640614",
"4  c #6C0614",
"5  c #6C0816",
"6  c #6B061A",
"7  c #6E0B1E",
"8  c #750719",
"9  c #72071C",
"0  c #73091C",
"q  c #4D2B18",
"w  c #652E1D",
"e  c #4F1227",
"r  c #7E0722",
"t  c #730D22",
"y  c #7A0E26",
"u  c #7C0F28",
"i  c #6D1728",
"p  c #741323",
"a  c #791427",
"s  c #7C1329",
"d  c #7D192A",
"f  c #7D1733",
"g  c #51322D",
"h  c #6E2A2D",
"j  c #145113",
"k  c #244716",
"l  c #274A10",
"z  c #24571A",
"x  c #365218",
"c  c #1A6C18",
"v  c #326F12",
"b  c #195224",
"n  c #374D2F",
"m  c #1D6D34",
"M  c #2D6F2B",
"N  c #4F4E19",
"B  c #45541A",
"V  c #6A4600",
"C  c #4C7018",
"Z  c #657A1A",
"A  c #4F5625",
"S  c #764E35",
"D  c #486421",
"F  c #677B26",
"G  c #2E254E",
"H  c #39186C",
"J  c #4E334A",
"K  c #461D79",
"L  c #543572",
"P  c #593578",
"I  c #1F4146",
"U  c #196D49",
"Y  c #21724F",
"T  c #454645",
"R  c #504D55",
"E  c #67625A",
"W  c #6D567F",
"Q  c #830725",
"!  c #860A28",
"~  c #910F2F",
"^  c #83132D",
"/  c #841C2D",
"(  c #8C1733",
")  c #941737",
"_  c #941639",
"`  c #9B1A3E",
"'  c #882133",
"]  c #98263B",
"[  c #A4233D",
"{  c #986419",
"}  c #915625",
"|  c #8C5738",
" . c #9E1B40",
".. c #A31C43",
"X. c #9D2C41",
"o. c #A72646",
"O. c #A93549",
"+. c #AC344B",
"@. c #B1374E",
"#. c #BE2C51",
"$. c #B23750",
"%. c #B53B51",
"&. c #C02855",
"*. c #825745",
"=. c #9C6443",
"-. c #986A52",
";. c #BC7D53",
":. c #917967",
">. c #BA7D66",
",. c #1A9112",
"<. c #339113",
"1. c #0EA412",
"2. c #2DB018",
"3. c #3AB817",
"4. c #08873C",
"5. c #108A30",
"6. c #178A3C",
"7. c #199838",
"8. c #2D8727",
"9. c #30922D",
"0. c #259B3A",
"q. c #1BA72B",
"w. c #1AB72C",
"e. c #19A536",
"r. c #1CB934",
"t. c #29A928",
"y. c #39A728",
"u. c #3BAC2B",
"i. c #2BB42C",
"p. c #26BB2C",
"a. c #2CBC2C",
"s. c #36BB24",
"d. c #34B52C",
"f. c #3BB42D",
"g. c #34BB2C",
"h. c #3ABA2C",
"j. c #2AA837",
"k. c #3BAD35",
"l. c #37A838",
"z. c #3CAD3B",
"x. c #2CB433",
"c. c #26B937",
"v. c #2CBC33",
"b. c #2BBC3B",
"n. c #34B534",
"m. c #3BB333",
"M. c #33BB34",
"N. c #3ABB35",
"B. c #34B43B",
"V. c #3AB33B",
"C. c #32BA3A",
"Z. c #3ABA3B",
"A. c #5A8D19",
"S. c #53951B",
"D. c #49AF0F",
"F. c #48A81A",
"G. c #588928",
"H. c #4A9B25",
"J. c #529429",
"K. c #479C35",
"L. c #628C33",
"P. c #45A729",
"I. c #45BC29",
"U. c #53B029",
"Y. c #45A937",
"T. c #46B734",
"R. c #56BB35",
"E. c #6ABA34",
"W. c #0DD210",
"Q. c #16D816",
"!. c #1CDC1B",
"~. c #2AC919",
"^. c #34C51C",
"/. c #25D91A",
"(. c #35D81B",
"). c #0AE70E",
"_. c #19E80D",
"`. c #02FF02",
"'. c #0BFE04",
"]. c #07F308",
"[. c #03FF0B",
"{. c #0BFE0B",
"}. c #13F708",
"|. c #13FC0C",
" X c #17E817",
".X c #1BE41C",
"XX c #09F517",
"oX c #04FE12",
"OX c #0BFD12",
"+X c #14F716",
"@X c #2FEB12",
"#X c #26E518",
"$X c #0CC320",
"%X c #19C827",
"&X c #19D726",
"*X c #1BDC24",
"=X c #28C726",
"-X c #2BCB22",
";X c #2BC32C",
":X c #2CCB2C",
">X c #37C427",
",X c #33C32C",
"<X c #26D525",
"1X c #36D424",
"2X c #2DC333",
"3X c #28C536",
"4X c #33C335",
"5X c #3AC333",
"6X c #27D333",
"7X c #19E524",
"8X c #32E524",
"9X c #48D21C",
"0X c #48C42A",
"qX c #57C82A",
"wX c #4ECD30",
"eX c #6ACD2F",
"rX c #79E02F",
"tX c #0D8A46",
"yX c #168846",
"uX c #189743",
"iX c #2E8B47",
"pX c #289D45",
"aX c #2BAF45",
"sX c #38A945",
"dX c #37B344",
"fX c #539C41",
"gX c #44A546",
"hX c #33C041",
"jX c #89BB30",
"kX c #82C62E",
"lX c #B38466",
"zX c #C9855D",
"xX c #DA976C",
"cX c #4E278F",
"vX c #5D2E93",
"bX c #745C86",
"nX c #6F5293",
"mX c #7C6397",
"MX c #7B44AD",
"NX c #8661A2",
"BX c #8C71A4",
"VX c #9E68CC",
"CX c #929390",
"ZX c #A8A8AE",
"AX c #C0C3BF",
"SX c #ECC1A3",
"DX c #B392D0",
"FX c #C8CAC6",
"GX c #CDD6CF",
"HX c #FAFAF9",
/* pixels */
"!.].`.Q.l.a.p.q.j.0XI.i.q.e.l.y.j.e.q.q.t.e.e.>X9Xi.i.p.a.p.t.9.p.p.y.y.i.p.i.:X@X-Xx.i.p.Q.).`.].W.",
"'.'.{.~.B.2Xx.4.0.rX0Xa.q.4.tX4.6.yX6.7.yXm yXE.rXn.b.h.h.f.C.C.a.=Xs.M.v.s.z..X`.~.gXl.h.{.'.oX/.u.",
"`.!.%Xn.gXP.H.aXM.I.M.n.I.0Xs.i.x.i.c.r.2.).t.,XC g.8.V.y.#X2./.;XaX0XqXC.;Xn.V.2X)..X7X X`._.6X;XN.",
"'.<XgX,X^.H.P.M.;Xp.b.B.qXeX>Xg.M.;Xz.D 1 <.1 C i D a A i v w v s.dXqXeXV.n.,Xv.gX X`.|.'.[..XgXV.N.",
"'.8XeX@X[.b.Y.s.M.2XC.h.n.k.n.dXB.m.D 8 r 5 ^ 7 o.t o.t [ p o.^ N A.m.k.tXe.5Xa.gX X`.'.XX2Xg.A.u.3X",
"oX(.E./.XX&X=Xa.C.P.s.V.3X%X<X=Xk.D 2 ^ o.p %.p %.a %.p %.a @./ 8 N ~.%X7.j.l.d.n.1X#X`.XXdXY.F.2.c.",
"`.Q.sXdX3XOX}.dXY.A.K.aX_.[.`.].B 5 0 s $.p +.p $.t @.t +.p @./ ` ^ v _.4Xj.c t.3XqXeX|.OXa.C.5Xj.4.",
"&X(.qXl.9.}.oX/.-XK.>X.X+XOXw.D , ^ X.u +.t ..7 ..t ..0  .0 O.a O.' 3 v d.B.9.i.n.0XR.1X<X2Xn.j.pX6.",
"pXqXrX<.c +XoX`.XXsX<X`.[.XXg 7 8 / +.t  .t  .t o.t ..t o.t ..a ` t ] ( B l.N.2Xv.v.i.B.M.5XaX6.yXyX",
"5Xn.j.6.yXdX<X{.|._.].[.~.B < s _ d O.t  .t  .t $.t ..t +.p +.d  .s o.' 3 A i.x.b.V.Y.e.7.q.7.tXe.z.",
"g.j.4.uX7.sXb.}.XX`.'. Xv < 6 (  .y ` y  .t ..t ..t %.p ..t +.d o.d _ ^ ] ' x b.>X;X=X7.yXiX7.uXl.>X",
"5.tXyXB.0X2Xg.Y.2X`.<Xl.x ( _ / X.y  .t  .t ..7 ..0 %.p ..t  .y ` u ` ^ ) f n  X{.{.oXiX6.3XN.P.<XOX",
"7.0.j.t.i.j.l.;X1X`.&Xn O ) ) s  .u  .t  .t ..7 ..7 ..7  .t  .y  .y X.' ] f z <XQ.XX[.r.r.u.T.6X.X`.",
"T.V.dX7.tXY uX`.`.[.7Xk + ] ] / X.a  .t  .t ..t ..7 o.t ..t  .y O./ X.' ) i j pXU ).'.[.OXF S.[.[.oX",
" X.X#Xx.l.%X&X`.}.!.~.z + ) _ ' O.d O.a +.a $.p %.t @.p @.a O.a O.f _ ^ _ i j f.pX=X X+X}.~.~.'. X7X",
"'.[.{.-Xn.+X{.`.!.k.f.z + ^ ~ ' o.d O.s @.p %.p %.p %.p $.s +.s O./ _ ^ Q < b N.>XY.sXXX`.`.oX'..XY.",
"4X7X`.}. X`.'.<XT.L.9.b + r r ^ ` s  .s @.p %.p %.p $.a ..t @.d  .u Q t r < x 3Xa.V.C.~.>XF.^.'. XY.",
"Y.&X].|.OX[.<XdXu.J.pXb + r r ^ ) t ` d @.p $.t ..t %.t  .t @.d _ u r 9 r < @ C f.2XM.V.V.G.F.`./.V.",
"g.V.n.].|.:Xz.M.x.6.B @ O r 0 0 Q u ` a @.t ..7  .t o.t ..t X.u Q t r 8 r < g S D g.v.2XC.m q.`.<XT.",
"a.N.T.!. X2XB.4Xj.tXB -.E > Q 0 r u ` t o.t ..t ..t  .7 ..7  .y r 9 r t 9 + S | x s.h.,XdXM t.`./.Y.",
"C.c.3Xl.k.b.n.,Xj.5.k :.:.+ ! 0 r u  .y  .t ..7 ..7 ..7  .t  .y r 6 r r + g >.S k a.r.V.n.z.5X`.1XJ.",
"n.I.wXN.v.N.g.;Xn.j.j S *.+ 8 0 r 7 ! t  .t ..7 ..t ..t ..t ! 9 Q 0 r r O w zXN j 0XE.b.%X X X[./.J.",
"v.wXeX0Xc.g.g.;XN.N.k.x q 1 + 8 Q 6 r t ..t ..t ..t ..7 ..y r 6 Q 6 r r O q w l W.9XeXN.b.|.[.OX_.T.",
"2X,Xs.k.sXV.k.H.P.s.T.iXj . O 0 8 6 Q 0 ! t ..7 ..7 ..7 ~ 6 ! 6 Q 0 6 8 + . % t.=X_.|.T.Y.`._.H.F.:X",
"B.x.x.2X:X6Xa.S.P.h.a.3XW.j + 8 4 9 ! 6 Q 6 ~ 0 ..t ..t Q 6 Q 6 Q t 4 4 + % q.b.fX!.`.=X,X`./.L.y.3X",
"5.pX4XXX'.`.XXI.gXaX&X'.`.).k 1 6 6 8 6 Q 6 Q 6 ~ 7 ~ 6 ! 6 Q 7 0 5 4 < & t.B.V.g.b.m.oX[.[..XM.;Xn.",
"7.l.P.Q. X}.].<X=X&X/.#X/.<Xc + 8 3 5 6 ! 6 ! 6 ! 6 r 6 Q 6 ! 7 5 3 0 + M 2X!.,XM.a.V.<X.X'.#XV.v.N.",
"wX3.S.fXM.{.{.`.'.'./.sXu.d.t.& > 5 4 6 0 3 0 5 r 3 ! 6 r 3 r 6 6 5 0 + z <X`.<XdXg.N.gXa.'.|.V.s.4X",
"C.n.m.j.v.:X7X[.`.[.6XsX~.n.V.l.k > 8 3 5 3 8 3 8 3 r 3 6 6 4 3 8 4 < & M ^.`.7XB.y.P.f.3Xw.r.dXn.n.",
"m.g.M.b.V.gXv.{.{.'.!.d.n.V.a.t.k . > 3 3 < , , , , , < , , 3 3 > + . M G.y.'.*XB.y.H.h.b.Y iX2XM.b.",
"XXt.M Q.{.v.d.M.<X`.&X6.j.x.I.& < > < 3 0 ) ( ) ] o.] ) _ _ t 4 < > , l ~.#X'.!.Y.n.3Xf.g.b.v.=XY.S.",
"`.%X8.Q.{.5XT.z.-XOXr.Y n.y.G # , > < 4 0 _ ) ] ] X.X.) _ _ 0 > > > > # I $X+X!.d.V.x.s.d.d.M.3Xu.A.",
"{.+X+X<Xn.eXeXf.g.;XB.sXP.R DXnXo . + 3 3 < , 2 , 2 2 , 2 , 4 > O + . R nXiXT.m.3XH.A.b.V.Z G.x.z.j.",
"`.OX{.:XB.0XT.i.z.B.a.n.v : CXZXbX+ ~ 9 4 4 4 8 3 4 8 4 4 4 4 ! 0 ! + ZXGXu.gXZ.v.T.P.b.a.^.~.<X<X*X",
"{.`.`.-XdXx.M.;XM.4X=Xy.A & & E E e #.3 < ' < ' 1 ] ~ < ' < / &.y o.< E BXC 9.B.k.C.C.z.<XoX`.{.{.'.",
"/.^.^.Y.dXn.d.v.x.8.8.A -.xXxX*.  e [ + + X.# h . d [ O i O h [ 3 ] e   q } Z &X.X X XP.l.:X_.`.'.`.",
"m.J.G.d.3XV.m.4X0.v B =.SXSX;.S X & + - e +   . g - > . ; J O + O + + S ;.{ Z ~.`.OX|.D.G.gX;X+X}.[.",
"x.C.Y. X`.}.'.OX/.j.v -.SXlX=.h k 8.- cXMXg ; R DXVXJ J DXDXL * *   q =.{ & m :X`.1XeXm.i.qXwX2X!.`.",
"p.p.C.#X}.+X).'.+Xn.v } xX| w N m 9.cXMXVXDXDXDXVXcXnXbXW W P MXcX*   V & ,.;X.X`.9XjXb.;XqXR.k.;X+X",
"2Xm.sXg.=Xz.,X'.'.'.<.N | w @ b N.0.H vXbXmXbXbXbXA T T T T R L H o $ $ 1.`.{.{.oX9XeXN.2X2XM.v.2Xm.",
"b.;X<X;XdXY.4X<X X[.'.1.$ $ z n.pXb   : g T T T R HXFXFXFXFXFXE n M 0.d.8X@X{.|.[.1XR.N.v.2.f.M.M.M.",
"l. X'.*XgX=Xg.sX3X[.'.'.;Xl.M.c.m * R FXAXFXFXFXAXZX: ; * = ; CXFXJ j M jX9X[.'.[.~.l.c.f.A.H.M.N.v.",
"/.1X9X,XV.j.e.Z.2X:X_.`.<Xk.2Xb.Y cXL   = * = = ; = mXBXnXmXBX: * - m l.qX5X=X X`.-Xk.C.M.n.d.M.f.K.",
"`.8XjXT.r.6.tXs.N.sX/.[.<Xz.g.n.q.U   = BXnXBXBXBXBX= @ @ o . L MXcXiX4Xp.M.K.<X`.6XY.v.M.M.M.2Xy.S.",
"`.@XkXqX3X6.7.M.3Xc.qXqXN.C.M.d.n.b.5.X         $   *.>.lX-.q . X U P.I.b.b.gX-X'.:XV.6XI.H.y.z.~.'.",
"XX1XR.f.j.q.j.n.f.d.R.eXM.v.v.M.,Xg.F.8.o G G $ D.X K NXMXcX* 8.e.6.3X2Xk.f.g. X`.s.Y.g.u.H.y.B.*X`.",
"hXuXtXtXyX;Xh.G.G.S.l.v.a.v.z.sXdXu.S.9.U pXK.].].X H cXcXK o W.3.F n.n.S.3.{.oX'.3.G.M m Z.N.l.<X`.",
",Xj.0.t.j.B.a.~.^.P.d.b.0XU.<X*X/.1XK.j.pXr.!./.!.c.n.T.0XT..X`.~.^.M.C.K.>X[._..Xp.K.2.$Xx.h.&X8X@X",
"N.Z.N.N.M.fX,X`.OXb.2XN.eXeX{.`.`.XXz.s.V. X[.2XsXf.s.eXeXkX@X[.'.`.h.sXY.:XoX6Xz.f.2X`.|.gX,X`.8XjX",
"K.~.]..X.X X7X:X3X0.0.uXx.wXq.2.N.*X.X_.#X].[.-Xb.Z.4X5XI.T.2X<X_.}.7X.X#X_.`..Xl.d.b.C.:X.X X{.#XT."
};
