/* XPM */
static char *result[] = {
/* columns rows colors chars-per-pixel */
"50 50 142 2 ",
"   c #5A2735",
".  c #592B34",
"X  c #5D3134",
"o  c #662D2F",
"O  c #6C2F2E",
"+  c #712F2D",
"@  c #6F302E",
"#  c #74312E",
"$  c #7B322D",
"%  c #642637",
"&  c #6A2737",
"*  c #642B33",
"=  c #6D2A35",
"-  c #652538",
";  c #6F2639",
":  c #732A35",
">  c #7B2E32",
",  c #76243B",
"<  c #7A243B",
"1  c #673332",
"2  c #6A3432",
"3  c #6E3A35",
"4  c #733432",
"5  c #7C3332",
"6  c #743A34",
"7  c #7C3C33",
"8  c #7E3F38",
"9  c #7C4236",
"0  c #85352D",
"q  c #8C352C",
"w  c #84392F",
"e  c #92362B",
"r  c #9B362A",
"t  c #933B2E",
"y  c #9D3829",
"u  c #892737",
"i  c #852D34",
"p  c #8C2A37",
"a  c #85233C",
"s  c #8C243D",
"d  c #922E33",
"f  c #9A2D34",
"g  c #9A273B",
"h  c #942838",
"j  c #833231",
"k  c #833C32",
"l  c #883A30",
"z  c #933031",
"x  c #9F3131",
"c  c #AC3A27",
"v  c #A3342E",
"b  c #A63A28",
"n  c #AA3A28",
"m  c #B53B27",
"M  c #BD3E26",
"N  c #B5332F",
"B  c #BE362F",
"V  c #B33A2A",
"C  c #BE392C",
"Z  c #A42D35",
"A  c #AA2D36",
"S  c #A2263D",
"D  c #AC253F",
"F  c #B62E37",
"G  c #BA2E37",
"H  c #B5273E",
"J  c #B42B3A",
"K  c #BB2C3A",
"L  c #A43334",
"P  c #AA3230",
"I  c #B73133",
"U  c #BC3234",
"Y  c #C23E26",
"T  c #C83F25",
"R  c #C6372F",
"E  c #C8372F",
"W  c #C43A2C",
"Q  c #CC3B2C",
"!  c #D13D2A",
"~  c #C33433",
"^  c #C73835",
"/  c #CB3E36",
"(  c #864335",
")  c #8B4535",
"_  c #8E4937",
"`  c #844338",
"'  c #8C4838",
"]  c #944432",
"[  c #9F4733",
"{  c #904937",
"}  c #9B4C36",
"|  c #964E38",
" . c #9D4F38",
".. c #9B5039",
"X. c #A6402C",
"o. c #AE432D",
"O. c #B5452D",
"+. c #A34431",
"@. c #A44B35",
"#. c #AC4B33",
"$. c #BB4B30",
"%. c #AD5036",
"&. c #A7553A",
"*. c #AA573A",
"=. c #B85234",
"-. c #B15638",
";. c #BE5439",
":. c #B35A3A",
">. c #B95C3B",
",. c #CB4125",
"<. c #C44429",
"1. c #CA4B2E",
"2. c #D34325",
"3. c #D94827",
"4. c #D5462A",
"5. c #D54B2A",
"6. c #DB4B29",
"7. c #D5542F",
"8. c #DE532D",
"9. c #CF4631",
"0. c #CB413A",
"q. c #CB4C39",
"w. c #D04631",
"e. c #D44934",
"r. c #D0493A",
"t. c #CA5331",
"y. c #C35937",
"u. c #CF503B",
"i. c #C35E3A",
"p. c #CE583D",
"a. c #D55C35",
"s. c #DD5D33",
"d. c #E1552E",
"f. c #E15C32",
"g. c #C6603B",
"h. c #CF623A",
"j. c #DD6136",
"k. c #D2623A",
"l. c #D96238",
"z. c #E06035",
"x. c #9D2241",
"c. c #AB2440",
/* pixels */
"-   3 9 9 9 9 6   - - - - % X 9 9 9 9 9 X % - - - -   3 9 9 9 9 6 . % - - - % X 9 9 9 9 9 X   - - - ",
"G i @.s.j.j.j.=.> F J c.F A 5 a.s.l.s.l.k f F c.J G i @.j.j.j.z.=.> F J c.F A 5 a.s.l.l.s.k Z G D D ",
",.q r ,.,.,.,.b 0 T ,.I U M $ Y ,.,.,.T $ m ,.W F T e r ,.,.,.,.b 0 ,.,.I U O.$ M ,.T T ,.$ c ,.W F ",
"k 7 7 k 7 # 7 7 6 ( $ 4 4 7 6 7 w 7 # 7 6 7 k $ = 7 6 7 7 k # 7 7 6 7 0 6 : w 6 k k 7 # k 6 7 7 7 * ",
"l.l.l.l.l.) %.l.l.p.1.#.] l.l.l.l.>.k a.l.k.q.t.k y.l.l.l.l.] %.l.l.p.w.@.{ l.l.l.l.y.k k.l.l.q.t.6 ",
",.2.,.,.2.q b 2.W I Q b e 2.,.2.2.M 0 ,.,.U ~ T $ M 2.,.,.2.q b 2.E U T b e 2.,.,.2.M $ ,.,.U R ,.+ ",
"w w 5 > $ = + $ : > w 6 3 w 5 # $ : o + > = k k 2 7 k 5 > > * = $ : 4 w 6 4 w 0 # > > * > > = j 0 2 ",
"k.h.k s g x.S S >  .k.h.k.k.:.: S x.S S g 4 i.k.k.k.k.7 p S x.Z S > } k.h.k.k.-.: Z x.g S g 6 i.h.k.",
"2.2.0 V ~ ~ ! E r v 2.2.2.3.V 0 ^ U 2.E C $ ,.4.2.2.2.0 c ~ ^ Q E r v 2.2.3.5.m 0 R U ! E C $ ,.2.2.",
"0 w @ 5 > q 0 > 2 4 q l 0 0 5 @ > j 0 > 5 1 0 q l 0 0 @ 5 > 0 0 > 4 4 l q 0 0 5 2 i 0 w > 5 2 0 l l ",
"3 g.g.>.$.>.7 -.g.g.g.g.'  .g.i.$.y...) g.g.i.g.:.6 i.g.y.O.>.7 :.i.i.i.g.)  .g.i.$.;...( g.i.g.g.g.",
"# 2.3.3.9.U 5 <.6.3.6.3.t n 6.3.4.^ L q 6.6.3.6.,.0 5.5.6.9.~ j <.6.3.3.3.t n 6.6.2.^ L t 6.6.3.3.3.",
"X q e e e j * q q e q e + $ e e e q ; O q e q e q o q e q e i * 0 e e q e O $ e e e q ; @ e q q q e ",
"s ; { >.>.>.>. .& s s s s a 2 :.>.>.>.>.6 a s s s s ; { >.>.>.>. .& s s s s a 3 :.>.>.>.>.6 a s s s ",
"! r b 6.6.6.8.O.q ! E K E W 0 5.8.6.6.6.0 V ! ~ ~ Q e X.6.6.6.8.O.q ! E K E Y 5 5.6.6.6.6.w V Q G ~ ",
"b + $ y r y y 0 O y y z d e o e r y y r = q r r p r # $ b r r y 0 # r r d d e @ e y y y r O q y r p ",
"&.*.*.&.*.9 ) *.&.&.+.) 9 *.*.*.*. .3 &.*.&.@.[ 3  .*.*.*.&.7 _ *.*.&.+.' 8 *.*.*.*. .3 &.*.*.@.[ 1 ",
"8.8.8.8.d.t O.d.8./ 4.o.t d.8.6.8.1.w 7.8.e./ 5.k 1.8.8.8.8.t O.d.6.0.4.o.t 8.8.6.d.1.l 6.8.e.0.5.5 ",
"b b c n c $ q c f f n 0 $ n b n c r + b b f v b O r b n c c # q c v f n q $ n b n n r @ b n f v b o ",
" . .2 ; < , < < & 9 .... . .' * , < , < , * |  . . . .2 ; < , , , & 9 ..| .. .' * , , , < , * | ..| ",
"8.d.l P K G ^ ~ z X.f.d.d.d.$.j ~ H ^ ~ I $ 7.d.s.d.d.w P K K ^ ^ z X.d.d.s.d.$.j ~ H ^ ^ N 5 7.d.s.",
"m m # r Z V V A 0 0 M m m M r $ L P m P v # c m m m V # r Z V V Z 0 q m m m M r $ Z P V P v + c m m ",
"1 ' ' ) k { 2 ` ' ' ) { 6 9 _ ) w ) 9 4 { ' { { ) 2 ' ' { l ) 2 ( ' ) _ { 6 7 { ' k ) k 4 { ' ) { { ",
"6 s.f.8.w.u.k t.f.f.f.f.] #.f.s.6.r.#.] f.f.s.s.t.k s.s.8.w.u.k t.f.f.f.f.] #.f.s.5.r.#.] f.s.s.s.s.",
"O M M Y C Z = c Y Y Y Y 0 r T M M I u 0 Y Y Y Y m # M M M M A = n T M Y Y 0 r T M Y N u 0 Y M Y Y Y ",
"& * 7 ( ( k 9 7 * : : : & - * ( ) ( 7 9 2 = ; : = & = 6 ( ( k 7 7 * : : : & = * ( ( ( 8 7 2 = : : : ",
"G i @.f.s.s.z.=.> F J c.K A 5 a.s.j.s.s.k Z F D J G i @.j.s.s.z.$.> F J c.G A $ a.s.s.j.s.k Z F D D ",
"T e r T ,.,.T b 0 T T I B M # Y T T T T $ c ,.C F T q r ,.T ,.,.b 0 T T F U O.$ M T T ,.T $ m <.C J ",
"k 6 7 k k 4 7 7 6 k 0 6 4 7 6 k k 7 # k 6 7 k 7 = 7 6 7 k k 4 7 7 6 k k 6 4 7 6 k k 7 # k 6 7 5 0 * ",
"l.l.l.a.l.) %.l.l.p.1.#.{ l.l.l.l.y.( k.l.l.q.1.( i.l.l.l.l.) %.j.l.p.1.#.] l.l.l.l.y.` k.l.l.q.t.6 ",
"2.,.,.2.2.q b 2.W G ,.b q 2.,.2.,.M $ ,.,.U W <.$ M ,.2.2.2.q b 2.W U Q b q 2.2.T 2.M $ ,.,.U W ,.# ",
"k l $ $ $ * = $ : 4 k 5 2 l 0 + $ : * $ > = k w @ 5 0 5 + $ * : $ : 4 l 4 2 k $ > $ + * 5 5 = 5 0 1 ",
"h.k.7 h c.x.g S < } k.k.k.k.-.: S g S S g 4 g.k.k.k.h.7 h x.x.S S <  .k.k.k.k.-.: S x.S S g 4 i.k.k.",
"2.2.j c ~ E ! ^ e b 5.2.2.3.m 0 ^ U Q E C 0 ,.2.5.2.2.0 P ~ E 2.E r b 2.2.2.3.O.0 R U Q E Y 5 ,.2.4.",
"0 0 2 5 > l j > # # l q 0 0 $ 2 > j 0 > > 1 0 q w $ l @ 5 > 0 0 > 4 # w l 0 w 5 @ > 0 q > 5 2 0 q l ",
"3 g.g.y.$.>.7 -.g.g.g.g.)  .g.g.$.;.&.( g.g.g.i.:.9 i.g.y.$.>.9 :.g.g.g.g.)  .g.i.$.;...( g.g.g.i.i.",
"# 5.6.6.Q ~ 5 <.3.6.3.6.t n 6.3.2.^ L e 3.3.5.5.<.0 4.6.5.Q ~ 5 <.6.3.3.3.t n 6.3.4.^ L t 3.3.6.3.3.",
". q q t t i * 0 q e q e @ $ e e e q : 2 e q q $ 0 o q e e e i * 0 q e q e + > e e e q : = e q q q q ",
"p , { >.:.>.>. .& s s s s a 2 :.>.>.>.>.6 < x.x.s s ; { >.>.>.>. .& s s s x.< 2 :.>.>.>.>.6 a s s s ",
"! e b 6.6.6.d.O.q ! E G ^ W $ 5.7.6.6.6.0 C ! U ~ ! e n 6.6.8.6.O.q Q Q K E C $ 5.6.7.6.6.0 V ! ~ U ",
"y $ $ y r r b 0 O r r d d e O r r r y y @ q y r p r $ $ y r r y 0 # r r e d e o e y r y r @ q y y p ",
"&.&.&.&.*.7 ) *.*.*.[ ' 7 *.*.*.*...3 *.*.*.@.+.6 ..*.*.*.*.7 ' *.&.&.+.) 9 *.&.*.*...3 *.*.*.} } 1 ",
"d.d.8.8.8.t O.d.6.0.4.o.r 8.8.8.8.1.0 6.8.1./ 5.k 1.8.6.8.8.t O.d.6./ 4.O.t 8.8.8.8.1.0 8.6.e./ 5.# ",
"b n b c c $ q c x f n q $ c b b n r @ c b f v b O r b c n c $ q n L f n q $ c c c c r O b b f b b o ",
"} ..3 ; < , < < - 9 .... . .) * < < , < , * |  . . ...2 , , , , < - 9  . . ...' * < , , < , *  .....",
"8.d.w P K G ^ ~ z X.f.d.8.s.$.j ~ H ~ ~ U $ 7.s.8.s.d.w P G K ^ ^ d X.d.s.d.8.$.i ^ H ~ ~ I 5 7.8.8.",
"m V $ r Z V V Z 0 q m m m M r # L P m P v # c m m m m # r Z V V Z 0 q m m m m r # L P V P v # c m m ",
"1 ) { ( l _ 2 ` _ ' { ) 6 9 ' ) l ) 9 3 ' ' _ _ ' 2 _ ' ) l { 2 ( ' _ { { 6 7 _ _ w ) 7 3 _ ' ' _ ] ",
"6 s.d.8.1.u.k t.s.s.s.d.] #.d.s.5.r.#.t f.s.s.s.1.w a.d.s.4.q.k t.f.s.s.s.] o.f.a.3.e.#.] s.8.s.s.s.",
"+ T ! 2.2.G : M 2.2.! 2.e c 2.2.2.W h q 2.2.2.! M 0 ,.2.2.T G : M 2.2.2.! e c 2.2.2.R h q ! 2.! 2.2."
};
